<?xml version="1.0" encoding="utf-8"?>
<!-- Generator: Adobe Illustrator 23.0.2, SVG Export Plug-In . SVG Version: 6.00 Build 0)  -->
<svg version="1.1" id="Layer_1" xmlns="http://www.w3.org/2000/svg" xmlns:xlink="http://www.w3.org/1999/xlink" x="0px" y="0px"
	 viewBox="0 0 74 75" style="enable-background:new 0 0 74 75;" xml:space="preserve">
<style type="text/css">
	.st0{fill:#FEFEFE;}
	.st1{clip-path:url(#SVGID_2_);}
	.st2{clip-path:url(#SVGID_4_);}
	.st3{clip-path:url(#SVGID_6_);}
	.st4{fill:url(#SVGID_7_);}
	.st5{fill:url(#SVGID_8_);}
	.st6{fill:url(#SVGID_9_);}
	.st7{fill:url(#SVGID_10_);}
</style>
<title>thefloor-ux-crm-v5</title>
<g>
	<g>
		<path class="st0" d="M42.5,32.2c0.9,0,1.6,0.7,1.5,1.6c0,0.7-0.1,1.3-0.2,2c-0.8,5-4.6,8.9-9.5,10c-2.6,0.5-5.3,0.2-7.6-0.9
			c-2.2-1-4-2.7-5.3-4.8c-1.3-2.2-1.9-4.6-1.7-7.1c0.2-2.6,1.2-5.1,2.8-7.1c3.3-3.9,8.6-5.4,13.4-3.6c2.4,0.9,4.4,2.5,5.9,4.5
			c1.4,2.1,2.2,4.5,2.2,7c0.1,0.9-0.6,1.6-1.5,1.7S41,34.9,40.9,34c0-0.1,0-0.2,0-0.3c0-0.5,0-1-0.1-1.5c0,0.1,0,0.3,0.1,0.4
			c-0.1-0.9-0.4-1.8-0.7-2.7l0.2,0.4c-0.3-0.6-0.6-1.2-1-1.8c-0.1-0.1-0.2-0.3-0.3-0.4s0.1,0,0.1,0.1c0-0.1-0.1-0.2-0.2-0.2
			c-0.2-0.2-0.4-0.5-0.7-0.7c-0.2-0.2-0.5-0.5-0.7-0.7l-0.2-0.2c0.4,0.3,0.2,0.1,0.1,0.1s-0.3-0.2-0.5-0.3c-0.6-0.4-1.1-0.7-1.8-1
			l0.4,0.2c-0.9-0.4-1.8-0.6-2.7-0.7l0.4,0.1c-0.9-0.1-1.9-0.1-2.8,0l0.4-0.1c-0.9,0.1-1.8,0.4-2.7,0.7l0.4-0.2
			c-0.6,0.3-1.2,0.6-1.8,1l-0.4,0.3c-0.2,0.2,0-0.1,0.1-0.1s-0.2,0.1-0.2,0.2c-0.3,0.2-0.5,0.4-0.7,0.7c-0.2,0.2-0.5,0.5-0.7,0.7
			l-0.2,0.2c0.3-0.4,0.1-0.2,0.1-0.1s-0.2,0.3-0.3,0.5c-0.4,0.6-0.7,1.2-1,1.8l0.2-0.4c-0.4,0.9-0.6,1.8-0.7,2.7
			c0-0.1,0-0.3,0.1-0.4c-0.1,1-0.1,2,0,2.9c0-0.1,0-0.3-0.1-0.4c0.1,0.9,0.4,1.8,0.7,2.7l-0.2-0.4c0.3,0.6,0.6,1.2,1,1.8l0.3,0.4
			c0.2,0.2-0.1,0-0.1-0.1s0.1,0.2,0.2,0.2c0.2,0.3,0.4,0.5,0.7,0.7c0.2,0.2,0.5,0.5,0.7,0.7l0.2,0.2c-0.4-0.3-0.2-0.1-0.1-0.1
			l0.5,0.3c0.6,0.4,1.2,0.7,1.8,1l-0.4-0.2c0.9,0.4,1.7,0.6,2.7,0.7h-0.4c0.9,0.1,1.8,0.1,2.8,0h-0.4c0.9-0.1,1.8-0.4,2.7-0.7
			l-0.4,0.2c0.6-0.3,1.2-0.6,1.8-1l0.4-0.3c0.2-0.2,0,0.1-0.1,0.1s0.2-0.1,0.2-0.2c0.3-0.2,0.5-0.4,0.7-0.7c0.2-0.2,0.5-0.5,0.7-0.7
			c0.1-0.1,0.1-0.2,0.2-0.2c-0.3,0.4-0.2,0.2-0.1,0.1l0.3-0.3c0.4-0.6,0.7-1.2,1-1.8l-0.2,0.4c0.4-0.9,0.6-1.8,0.7-2.7
			c0,0.1,0,0.3-0.1,0.4c0.1-0.5,0.1-1,0.1-1.5C40.9,33,41.6,32.3,42.5,32.2z"/>
		
			<rect x="45" y="38.9" transform="matrix(0.6783 -0.7348 0.7348 0.6783 -19.4178 48.5384)" class="st0" width="1.5" height="15.1"/>
		<path class="st0" d="M39.5,39.7c0.6-0.6,1.6-0.6,2.2,0l1.4,1.3l6,5.5l3.8,3.5c0.6,0.6,0.6,1.6,0,2.2c-0.3,0.4-0.7,0.7-1,1.1
			c-0.6,0.6-1.6,0.6-2.2,0L48.3,52c-2-1.8-4-3.7-6-5.5L38.5,43c-0.6-0.6-0.6-1.6,0-2.2L39.5,39.7c0.6-0.6,1.6-0.6,2.2,0
			s0.6,1.6,0,2.2l-1,1.1v-2.3l1.4,1.3l6,5.5l3.8,3.5h-2.2l1-1.1v2.2l-1.4-1.3l-6-5.5l-3.8-3.5C38.9,41.3,38.9,40.3,39.5,39.7z"/>
	</g>
	<g>
		<g>
			<defs>
				<path id="SVGID_1_" d="M-1369,350H417c6.6,0,12,5.4,12,12v358c0,6.6-5.4,12-12,12h-1786c-6.6,0-12-5.4-12-12V362
					C-1381,355.4-1375.6,350-1369,350z"/>
			</defs>
			<clipPath id="SVGID_2_">
				<use xlink:href="#SVGID_1_"  style="overflow:visible;"/>
			</clipPath>
			<g class="st1">
				<g>
					<defs>
						<path id="SVGID_3_" d="M-1420.5,97h1893c6.6,0,12,5.4,12,12v1529c0,6.6-5.4,12-12,12h-1893c-6.6,0-12-5.4-12-12V109
							C-1432.5,102.4-1427.1,97-1420.5,97z"/>
					</defs>
					<clipPath id="SVGID_4_">
						<use xlink:href="#SVGID_3_"  style="overflow:visible;"/>
					</clipPath>
					<g class="st2">
						<g>
							<defs>
								<rect id="SVGID_5_" x="-1433" y="98" width="1917" height="1917"/>
							</defs>
							<clipPath id="SVGID_6_">
								<use xlink:href="#SVGID_5_"  style="overflow:visible;"/>
							</clipPath>
							<g class="st3">
								
									<linearGradient id="SVGID_7_" gradientUnits="userSpaceOnUse" x1="257.8" y1="-131.29" x2="257.8" y2="67.92" gradientTransform="matrix(1 0 0 -1 0 76)">
									<stop  offset="0" style="stop-color:#D1D3D4"/>
									<stop  offset="0.23" style="stop-color:#CDCFD0"/>
									<stop  offset="0.45" style="stop-color:#C2C4C5"/>
									<stop  offset="0.66" style="stop-color:#AFB1B3"/>
									<stop  offset="0.87" style="stop-color:#949699"/>
									<stop  offset="1" style="stop-color:#808285"/>
								</linearGradient>
								<polygon class="st4" points="207.2,8.1 43.4,207.3 472.2,190.6 								"/>
								
									<linearGradient id="SVGID_8_" gradientUnits="userSpaceOnUse" x1="-97.32" y1="-164.47" x2="-97.32" y2="67.92" gradientTransform="matrix(1 0 0 -1 0 76)">
									<stop  offset="0" style="stop-color:#FFFFFF"/>
									<stop  offset="1" style="stop-color:#A7A9AC"/>
								</linearGradient>
								<polygon class="st5" points="207.2,8.1 43.4,207.3 -401.9,240.5 								"/>
								
									<linearGradient id="SVGID_9_" gradientUnits="userSpaceOnUse" x1="-144.055" y1="67.92" x2="-144.055" y2="227.65" gradientTransform="matrix(1 0 0 -1 0 76)">
									<stop  offset="0" style="stop-color:#FFFFFF"/>
									<stop  offset="1" style="stop-color:#D1D3D4"/>
								</linearGradient>
								<polygon class="st6" points="-495.3,8.1 207.2,8.1 -439.4,-151.6 								"/>
								
									<linearGradient id="SVGID_10_" gradientUnits="userSpaceOnUse" x1="-297.3167" y1="217.1322" x2="-42.8695" y2="-120.534" gradientTransform="matrix(1 0 0 -1 0 76)">
									<stop  offset="0" style="stop-color:#D1D3D4"/>
									<stop  offset="0.23" style="stop-color:#CDCFD0"/>
									<stop  offset="0.45" style="stop-color:#C2C4C5"/>
									<stop  offset="0.66" style="stop-color:#AFB1B3"/>
									<stop  offset="0.87" style="stop-color:#949699"/>
									<stop  offset="1" style="stop-color:#808285"/>
								</linearGradient>
								<polygon class="st7" points="-495.3,8.1 -401.9,240.5 207.2,8.1 								"/>
							</g>
						</g>
					</g>
				</g>
			</g>
		</g>
	</g>
</g>
</svg>
