<svg xmlns="http://www.w3.org/2000/svg" xmlns:xlink="http://www.w3.org/1999/xlink" viewBox="0 0 74 75"><defs><style>.cls-1{fill:none;}.cls-2{isolation:isolate;}.cls-3{clip-path:url(#clip-path);}.cls-4{clip-path:url(#clip-path-2);}.cls-5{clip-path:url(#clip-path-3);}.cls-6{clip-path:url(#clip-path-4);}.cls-7{fill:url(#linear-gradient);}.cls-8{fill:url(#linear-gradient-2);}.cls-9{clip-path:url(#clip-path-5);}.cls-10{clip-path:url(#clip-path-6);}.cls-11{clip-path:url(#clip-path-7);}.cls-12{clip-path:url(#clip-path-8);}.cls-13{fill:url(#linear-gradient-3);}.cls-14{fill:url(#linear-gradient-4);}.cls-15{clip-path:url(#clip-path-9);}.cls-16{clip-path:url(#clip-path-10);}.cls-17{clip-path:url(#clip-path-11);}.cls-18{fill:url(#linear-gradient-5);}.cls-19{fill:url(#linear-gradient-6);}.cls-20{fill:#4f4f4f;}.cls-21{clip-path:url(#clip-path-12);}.cls-22{clip-path:url(#clip-path-13);}.cls-23{clip-path:url(#clip-path-14);}.cls-24{fill:url(#linear-gradient-7);}.cls-25{fill:url(#linear-gradient-8);}.cls-26{fill:url(#linear-gradient-9);}.cls-27{fill:url(#linear-gradient-10);}.cls-28,.cls-34{mix-blend-mode:multiply;}.cls-28{fill:url(#radial-gradient);}.cls-29{clip-path:url(#clip-path-15);}.cls-30{clip-path:url(#clip-path-16);}.cls-31{clip-path:url(#clip-path-17);}.cls-32{fill:url(#linear-gradient-11);}.cls-33{fill:url(#linear-gradient-12);}.cls-34{fill:url(#radial-gradient-2);}.cls-35{clip-path:url(#clip-path-18);}.cls-36{clip-path:url(#clip-path-19);}.cls-37{clip-path:url(#clip-path-20);}.cls-38{fill:url(#linear-gradient-13);}.cls-39{fill:url(#linear-gradient-14);}</style><clipPath id="clip-path"><rect class="cls-1" x="-345" y="846.83" width="587" height="816" rx="12"/></clipPath><clipPath id="clip-path-2"><rect class="cls-1" x="-1625.17" y="217.83" width="1919.15" height="2609" rx="12"/></clipPath><clipPath id="clip-path-3"><rect class="cls-1" x="-1621.5" y="177.83" width="1917" height="1553" rx="12"/></clipPath><clipPath id="clip-path-4"><rect class="cls-1" x="-1622" y="178.83" width="1917" height="1917"/></clipPath><linearGradient id="linear-gradient" x1="-333.06" y1="88.91" x2="-333.06" y2="-70.82" gradientUnits="userSpaceOnUse"><stop offset="0" stop-color="#fff"/><stop offset="1" stop-color="#d1d3d4"/></linearGradient><linearGradient id="linear-gradient-2" x1="279.47" y1="88.91" x2="279.47" y2="-244.01" xlink:href="#linear-gradient"/><clipPath id="clip-path-5"><rect class="cls-1" x="-954.25" y="847.08" width="586" height="817" rx="12"/></clipPath><clipPath id="clip-path-6"><rect class="cls-1" x="-1624.42" y="218.08" width="1919.15" height="2609" rx="12"/></clipPath><clipPath id="clip-path-7"><rect class="cls-1" x="-1620.75" y="178.08" width="1917" height="1553" rx="12"/></clipPath><clipPath id="clip-path-8"><rect class="cls-1" x="-1621.25" y="179.08" width="1917" height="1917"/></clipPath><linearGradient id="linear-gradient-3" x1="-332.31" y1="89.16" x2="-332.31" y2="-70.57" xlink:href="#linear-gradient"/><linearGradient id="linear-gradient-4" x1="280.22" y1="89.16" x2="280.22" y2="-243.76" xlink:href="#linear-gradient"/><clipPath id="clip-path-9"><rect class="cls-1" x="-1569.58" y="846.83" width="587" height="816" rx="12"/></clipPath><clipPath id="clip-path-10"><rect class="cls-1" x="-1621.08" y="177.83" width="1917" height="1553" rx="12"/></clipPath><clipPath id="clip-path-11"><rect class="cls-1" x="-1621.58" y="178.83" width="1917" height="1917"/></clipPath><linearGradient id="linear-gradient-5" x1="-332.64" y1="88.91" x2="-332.64" y2="-70.82" xlink:href="#linear-gradient"/><linearGradient id="linear-gradient-6" x1="279.89" y1="88.91" x2="279.89" y2="-244.01" xlink:href="#linear-gradient"/><clipPath id="clip-path-12"><rect class="cls-1" x="-662" y="-631.5" width="1810" height="382" rx="12"/></clipPath><clipPath id="clip-path-13"><rect class="cls-1" x="-713.5" y="-884.5" width="1917" height="1553" rx="12"/></clipPath><clipPath id="clip-path-14"><rect class="cls-1" x="-714" y="-883.5" width="1917" height="1917"/></clipPath><linearGradient id="linear-gradient-7" x1="-2332.8" y1="2970.1" x2="-2332.8" y2="2659.36" gradientTransform="translate(3572 -564.15) rotate(41.55)" gradientUnits="userSpaceOnUse"><stop offset="0" stop-color="#d1d3d4"/><stop offset="0.23" stop-color="#cdcfd0"/><stop offset="0.45" stop-color="#c2c4c5"/><stop offset="0.66" stop-color="#afb1b3"/><stop offset="0.87" stop-color="#949699"/><stop offset="1" stop-color="#808285"/></linearGradient><linearGradient id="linear-gradient-8" x1="-23.18" y1="420.8" x2="-23.18" y2="-47.02" gradientUnits="userSpaceOnUse"><stop offset="0" stop-color="#fff"/><stop offset="0.41" stop-color="#fbfbfc"/><stop offset="0.79" stop-color="#f0f1f1"/><stop offset="1" stop-color="#e6e7e8"/></linearGradient><linearGradient id="linear-gradient-9" x1="137.01" y1="420.8" x2="137.01" y2="-47.02" xlink:href="#linear-gradient"/><linearGradient id="linear-gradient-10" x1="-88.22" y1="580.14" x2="-88.22" y2="68.47" xlink:href="#linear-gradient-8"/><radialGradient id="radial-gradient" cx="1033.21" cy="-686.82" r="2358.39" gradientUnits="userSpaceOnUse"><stop offset="0" stop-color="#fff"/><stop offset="0.32" stop-color="#fdfdfd"/><stop offset="0.47" stop-color="#f7f8f8"/><stop offset="0.58" stop-color="#f2f3f3"/><stop offset="0.7" stop-color="#e4e5e6"/><stop offset="0.84" stop-color="#cdced0"/><stop offset="0.98" stop-color="#acaeb1"/><stop offset="1" stop-color="#a7a9ac"/></radialGradient><clipPath id="clip-path-15"><rect class="cls-1" x="-1509" y="-807.5" width="587" height="816" rx="12"/></clipPath><clipPath id="clip-path-16"><rect class="cls-1" x="-1560.5" y="-1476.5" width="1917" height="1553" rx="12"/></clipPath><clipPath id="clip-path-17"><rect class="cls-1" x="-1561" y="-1475.5" width="1917" height="1917"/></clipPath><linearGradient id="linear-gradient-11" x1="-134.88" y1="110.24" x2="-134.88" y2="-335.09" gradientUnits="userSpaceOnUse"><stop offset="0" stop-color="#fff"/><stop offset="1" stop-color="#e6e7e8"/></linearGradient><linearGradient id="linear-gradient-12" x1="66.7" y1="-135.56" x2="14.38" y2="133.58" xlink:href="#linear-gradient-8"/><radialGradient id="radial-gradient-2" cx="186.21" cy="-1278.82" r="2358.39" xlink:href="#radial-gradient"/><clipPath id="clip-path-18"><rect class="cls-1" x="-1569" y="431" width="1810" height="382" rx="12"/></clipPath><clipPath id="clip-path-19"><rect class="cls-1" x="-1620.5" y="178" width="1917" height="1553" rx="12"/></clipPath><clipPath id="clip-path-20"><rect class="cls-1" x="-1621" y="179" width="1917" height="1917"/></clipPath><linearGradient id="linear-gradient-13" x1="-332.06" y1="89.08" x2="-332.06" y2="-70.65" xlink:href="#linear-gradient"/><linearGradient id="linear-gradient-14" x1="280.47" y1="89.08" x2="280.47" y2="-243.85" xlink:href="#linear-gradient"/></defs><title>thefloor-ux-crm-v5</title><g class="cls-2"><g id="Layer_1" data-name="Layer 1"><g class="cls-3"><g class="cls-4"><g class="cls-5"><g class="cls-6"><polygon class="cls-7" points="-684.33 88.91 18.22 88.91 -628.42 -70.82 -684.33 88.91"/><polygon class="cls-8" points="540.72 -244.01 524.5 85.4 18.22 88.91 540.72 -244.01"/></g></g></g></g><g class="cls-9"><g class="cls-10"><g class="cls-11"><g class="cls-12"><polygon class="cls-13" points="-683.58 89.16 18.97 89.16 -627.67 -70.57 -683.58 89.16"/><polygon class="cls-14" points="541.47 -243.76 525.25 85.65 18.97 89.16 541.47 -243.76"/></g></g></g></g><g class="cls-15"><g class="cls-16"><g class="cls-17"><polygon class="cls-18" points="-683.92 88.91 18.64 88.91 -628 -70.82 -683.92 88.91"/><polygon class="cls-19" points="541.14 -244.01 524.92 85.4 18.64 88.91 541.14 -244.01"/></g></g></g><path class="cls-20" d="M37,19.36A18.14,18.14,0,1,0,55.14,37.5,18.16,18.16,0,0,0,37,19.36Zm0,35.87A17.73,17.73,0,1,1,54.73,37.5,17.75,17.75,0,0,1,37,55.23Z"/><path class="cls-20" d="M28.31,28.85a1.44,1.44,0,1,0,1.45,1.44A1.45,1.45,0,0,0,28.31,28.85Zm0,2.47a1,1,0,1,1,1-1A1,1,0,0,1,28.31,31.32Z"/><rect class="cls-20" x="32.49" y="30.08" width="14.64" height="0.41"/><path class="cls-20" d="M28.31,33.66a1.44,1.44,0,1,0,1.45,1.44A1.44,1.44,0,0,0,28.31,33.66Zm0,2.46a1,1,0,0,1,0-2,1,1,0,1,1,0,2Z"/><rect class="cls-20" x="32.49" y="34.89" width="14.64" height="0.41"/><path class="cls-20" d="M28.31,38.47a1.44,1.44,0,1,0,1.45,1.44A1.44,1.44,0,0,0,28.31,38.47Zm0,2.47a1,1,0,1,1,1-1A1,1,0,0,1,28.31,40.94Z"/><rect class="cls-20" x="32.49" y="39.7" width="14.64" height="0.41"/><path class="cls-20" d="M28.31,43.27a1.45,1.45,0,1,0,1.45,1.45A1.45,1.45,0,0,0,28.31,43.27Zm0,2.47a1,1,0,1,1,1-1A1,1,0,0,1,28.31,45.74Z"/><rect class="cls-20" x="32.49" y="44.51" width="14.64" height="0.41"/><g class="cls-21"><g class="cls-22"><g class="cls-23"><polygon class="cls-24" points="-87.41 -121.14 -192.28 68.47 145.92 -47.02 -87.41 -121.14"/><polygon class="cls-25" points="-192.28 68.47 15.85 420.8 145.92 -47.02 -192.28 68.47"/><polygon class="cls-26" points="15.85 420.8 258.17 202.27 145.92 -47.02 15.85 420.8"/><polygon class="cls-27" points="-192.28 68.47 -144.97 580.14 15.85 420.8 -192.28 68.47"/></g><rect class="cls-28" x="-714" y="-883.5" width="1917" height="1917"/></g></g><g class="cls-29"><g class="cls-30"><g class="cls-31"><polygon class="cls-32" points="-105.67 110.24 82.75 -132.44 -352.51 -335.09 -105.67 110.24"/><polygon class="cls-33" points="82.75 -132.44 140.49 125.77 -105.67 110.24 82.75 -132.44"/></g><rect class="cls-34" x="-1561" y="-1475.5" width="1917" height="1917"/></g></g></g><g id="Layer_2" data-name="Layer 2"><g class="cls-35"><g class="cls-36"><g class="cls-37"><polygon class="cls-38" points="-683.33 89.08 19.22 89.08 -627.42 -70.65 -683.33 89.08"/><polygon class="cls-39" points="541.72 -243.85 525.5 85.57 19.22 89.08 541.72 -243.85"/></g></g></g></g></g></svg>