<svg xmlns="http://www.w3.org/2000/svg" xmlns:xlink="http://www.w3.org/1999/xlink" viewBox="0 0 74 75"><defs><style>.cls-1,.cls-32{fill:none;}.cls-2{isolation:isolate;}.cls-3{clip-path:url(#clip-path);}.cls-4{clip-path:url(#clip-path-2);}.cls-5{clip-path:url(#clip-path-3);}.cls-6{clip-path:url(#clip-path-4);}.cls-7{fill:url(#linear-gradient);}.cls-8{fill:url(#linear-gradient-2);}.cls-9{fill:url(#linear-gradient-3);}.cls-10{fill:url(#linear-gradient-4);}.cls-11{fill:url(#linear-gradient-5);}.cls-12{fill:url(#linear-gradient-6);}.cls-13{clip-path:url(#clip-path-5);}.cls-14{clip-path:url(#clip-path-6);}.cls-15{clip-path:url(#clip-path-7);}.cls-16{clip-path:url(#clip-path-8);}.cls-17{fill:url(#linear-gradient-7);}.cls-18{fill:url(#linear-gradient-8);}.cls-19{fill:url(#linear-gradient-9);}.cls-20{fill:url(#linear-gradient-10);}.cls-21{fill:url(#linear-gradient-11);}.cls-22{fill:url(#linear-gradient-12);}.cls-23{clip-path:url(#clip-path-9);}.cls-24{clip-path:url(#clip-path-10);}.cls-25{clip-path:url(#clip-path-11);}.cls-26{fill:url(#linear-gradient-13);}.cls-27{fill:url(#linear-gradient-14);}.cls-28{fill:url(#linear-gradient-15);}.cls-29{fill:url(#linear-gradient-16);}.cls-30{fill:url(#linear-gradient-17);}.cls-31{fill:url(#linear-gradient-18);}.cls-32{stroke:#fff;stroke-miterlimit:10;fill-rule:evenodd;}.cls-33{clip-path:url(#clip-path-12);}.cls-34{clip-path:url(#clip-path-13);}.cls-35{clip-path:url(#clip-path-14);}.cls-36{fill:url(#linear-gradient-19);}.cls-37{fill:url(#linear-gradient-20);}.cls-38{fill:url(#linear-gradient-21);}.cls-39,.cls-48{mix-blend-mode:multiply;}.cls-39{fill:url(#radial-gradient);}.cls-40{clip-path:url(#clip-path-15);}.cls-41{clip-path:url(#clip-path-16);}.cls-42{clip-path:url(#clip-path-17);}.cls-43{fill:url(#linear-gradient-22);}.cls-44{fill:url(#linear-gradient-23);}.cls-45{fill:url(#linear-gradient-24);}.cls-46{fill:url(#linear-gradient-25);}.cls-47{fill:url(#linear-gradient-26);}.cls-48{fill:url(#radial-gradient-2);}.cls-49{clip-path:url(#clip-path-18);}.cls-50{clip-path:url(#clip-path-19);}.cls-51{clip-path:url(#clip-path-20);}.cls-52{fill:url(#linear-gradient-27);}.cls-53{fill:url(#linear-gradient-28);}.cls-54{fill:url(#linear-gradient-29);}.cls-55{fill:url(#linear-gradient-30);}.cls-56{fill:url(#linear-gradient-31);}.cls-57{fill:url(#linear-gradient-32);}</style><clipPath id="clip-path"><rect class="cls-1" x="-345" y="765.83" width="587" height="816" rx="12"/></clipPath><clipPath id="clip-path-2"><rect class="cls-1" x="-1625.17" y="136.83" width="1919.15" height="2609" rx="12"/></clipPath><clipPath id="clip-path-3"><rect class="cls-1" x="-1621.5" y="96.83" width="1917" height="1553" rx="12"/></clipPath><clipPath id="clip-path-4"><rect class="cls-1" x="-1622" y="97.83" width="1917" height="1917"/></clipPath><linearGradient id="linear-gradient" x1="68.8" y1="207.13" x2="68.8" y2="7.91" gradientUnits="userSpaceOnUse"><stop offset="0" stop-color="#d1d3d4"/><stop offset="0.23" stop-color="#cdcfd0"/><stop offset="0.45" stop-color="#c2c4c5"/><stop offset="0.66" stop-color="#afb1b3"/><stop offset="0.87" stop-color="#949699"/><stop offset="1" stop-color="#808285"/></linearGradient><linearGradient id="linear-gradient-2" x1="-286.32" y1="240.3" x2="-286.32" y2="7.91" gradientUnits="userSpaceOnUse"><stop offset="0" stop-color="#fff"/><stop offset="1" stop-color="#a7a9ac"/></linearGradient><linearGradient id="linear-gradient-3" x1="-333.06" y1="7.91" x2="-333.06" y2="-151.82" gradientUnits="userSpaceOnUse"><stop offset="0" stop-color="#fff"/><stop offset="1" stop-color="#d1d3d4"/></linearGradient><linearGradient id="linear-gradient-4" x1="-486.32" y1="-141.3" x2="-231.87" y2="196.37" xlink:href="#linear-gradient"/><linearGradient id="linear-gradient-5" x1="279.47" y1="7.91" x2="279.47" y2="-325.01" xlink:href="#linear-gradient-3"/><linearGradient id="linear-gradient-6" x1="271.36" y1="190.42" x2="271.36" y2="4.4" gradientUnits="userSpaceOnUse"><stop offset="0" stop-color="#fff"/><stop offset="0.41" stop-color="#fbfbfc"/><stop offset="0.79" stop-color="#f0f1f1"/><stop offset="1" stop-color="#e6e7e8"/></linearGradient><clipPath id="clip-path-5"><rect class="cls-1" x="-954.25" y="766.08" width="586" height="817" rx="12"/></clipPath><clipPath id="clip-path-6"><rect class="cls-1" x="-1624.42" y="137.08" width="1919.15" height="2609" rx="12"/></clipPath><clipPath id="clip-path-7"><rect class="cls-1" x="-1620.75" y="97.08" width="1917" height="1553" rx="12"/></clipPath><clipPath id="clip-path-8"><rect class="cls-1" x="-1621.25" y="98.08" width="1917" height="1917"/></clipPath><linearGradient id="linear-gradient-7" x1="69.55" y1="207.38" x2="69.55" y2="8.16" xlink:href="#linear-gradient"/><linearGradient id="linear-gradient-8" x1="-285.57" y1="240.55" x2="-285.57" y2="8.16" xlink:href="#linear-gradient-2"/><linearGradient id="linear-gradient-9" x1="-332.31" y1="8.16" x2="-332.31" y2="-151.57" xlink:href="#linear-gradient-3"/><linearGradient id="linear-gradient-10" x1="-485.57" y1="-141.05" x2="-231.12" y2="196.62" xlink:href="#linear-gradient"/><linearGradient id="linear-gradient-11" x1="280.22" y1="8.16" x2="280.22" y2="-324.76" xlink:href="#linear-gradient-3"/><linearGradient id="linear-gradient-12" x1="272.11" y1="190.67" x2="272.11" y2="4.65" xlink:href="#linear-gradient-6"/><clipPath id="clip-path-9"><rect class="cls-1" x="-1569.58" y="765.83" width="587" height="816" rx="12"/></clipPath><clipPath id="clip-path-10"><rect class="cls-1" x="-1621.08" y="96.83" width="1917" height="1553" rx="12"/></clipPath><clipPath id="clip-path-11"><rect class="cls-1" x="-1621.58" y="97.83" width="1917" height="1917"/></clipPath><linearGradient id="linear-gradient-13" x1="69.22" y1="207.13" x2="69.22" y2="7.91" xlink:href="#linear-gradient"/><linearGradient id="linear-gradient-14" x1="-285.9" y1="240.3" x2="-285.9" y2="7.91" xlink:href="#linear-gradient-2"/><linearGradient id="linear-gradient-15" x1="-332.64" y1="7.91" x2="-332.64" y2="-151.82" xlink:href="#linear-gradient-3"/><linearGradient id="linear-gradient-16" x1="-485.91" y1="-141.3" x2="-231.45" y2="196.37" xlink:href="#linear-gradient"/><linearGradient id="linear-gradient-17" x1="279.89" y1="7.91" x2="279.89" y2="-325.01" xlink:href="#linear-gradient-3"/><linearGradient id="linear-gradient-18" x1="271.78" y1="190.42" x2="271.78" y2="4.4" xlink:href="#linear-gradient-6"/><clipPath id="clip-path-12"><rect class="cls-1" x="-662" y="-712.5" width="1810" height="382" rx="12"/></clipPath><clipPath id="clip-path-13"><rect class="cls-1" x="-713.5" y="-965.5" width="1917" height="1553" rx="12"/></clipPath><clipPath id="clip-path-14"><rect class="cls-1" x="-714" y="-964.5" width="1917" height="1917"/></clipPath><linearGradient id="linear-gradient-19" x1="-23.18" y1="339.8" x2="-23.18" y2="-128.02" xlink:href="#linear-gradient-6"/><linearGradient id="linear-gradient-20" x1="137.01" y1="339.8" x2="137.01" y2="-128.02" xlink:href="#linear-gradient-3"/><linearGradient id="linear-gradient-21" x1="-88.22" y1="499.14" x2="-88.22" y2="-12.53" xlink:href="#linear-gradient-6"/><radialGradient id="radial-gradient" cx="1033.21" cy="-767.82" r="2358.39" gradientUnits="userSpaceOnUse"><stop offset="0" stop-color="#fff"/><stop offset="0.32" stop-color="#fdfdfd"/><stop offset="0.47" stop-color="#f7f8f8"/><stop offset="0.58" stop-color="#f2f3f3"/><stop offset="0.7" stop-color="#e4e5e6"/><stop offset="0.84" stop-color="#cdced0"/><stop offset="0.98" stop-color="#acaeb1"/><stop offset="1" stop-color="#a7a9ac"/></radialGradient><clipPath id="clip-path-15"><rect class="cls-1" x="-1509" y="-888.5" width="587" height="816" rx="12"/></clipPath><clipPath id="clip-path-16"><rect class="cls-1" x="-1560.5" y="-1557.5" width="1917" height="1553" rx="12"/></clipPath><clipPath id="clip-path-17"><rect class="cls-1" x="-1561" y="-1556.5" width="1917" height="1917"/></clipPath><linearGradient id="linear-gradient-22" x1="-134.88" y1="29.24" x2="-134.88" y2="-416.09" gradientUnits="userSpaceOnUse"><stop offset="0" stop-color="#fff"/><stop offset="1" stop-color="#e6e7e8"/></linearGradient><linearGradient id="linear-gradient-23" x1="66.7" y1="-216.56" x2="14.38" y2="52.58" xlink:href="#linear-gradient-6"/><linearGradient id="linear-gradient-24" x1="-95.58" y1="238.07" x2="-95.58" y2="15.09" gradientUnits="userSpaceOnUse"><stop offset="0" stop-color="#fff"/><stop offset="0.29" stop-color="#fbfbfb"/><stop offset="0.59" stop-color="#eeeeef"/><stop offset="0.91" stop-color="#d8dadb"/><stop offset="1" stop-color="#d1d3d4"/></linearGradient><linearGradient id="linear-gradient-25" x1="66.92" y1="633.71" x2="66.92" y2="44.77" xlink:href="#linear-gradient"/><linearGradient id="linear-gradient-26" x1="282.85" y1="633.71" x2="282.85" y2="44.77" xlink:href="#linear-gradient-24"/><radialGradient id="radial-gradient-2" cx="186.21" cy="-1359.82" r="2358.39" xlink:href="#radial-gradient"/><clipPath id="clip-path-18"><rect class="cls-1" x="-1569" y="350" width="1810" height="382" rx="12"/></clipPath><clipPath id="clip-path-19"><rect class="cls-1" x="-1620.5" y="97" width="1917" height="1553" rx="12"/></clipPath><clipPath id="clip-path-20"><rect class="cls-1" x="-1621" y="98" width="1917" height="1917"/></clipPath><linearGradient id="linear-gradient-27" x1="69.8" y1="207.29" x2="69.8" y2="8.08" xlink:href="#linear-gradient"/><linearGradient id="linear-gradient-28" x1="-285.32" y1="240.47" x2="-285.32" y2="8.08" xlink:href="#linear-gradient-2"/><linearGradient id="linear-gradient-29" x1="-332.06" y1="8.08" x2="-332.06" y2="-151.65" xlink:href="#linear-gradient-3"/><linearGradient id="linear-gradient-30" x1="-485.32" y1="-141.14" x2="-230.87" y2="196.53" xlink:href="#linear-gradient"/><linearGradient id="linear-gradient-31" x1="280.47" y1="8.08" x2="280.47" y2="-324.85" xlink:href="#linear-gradient-3"/><linearGradient id="linear-gradient-32" x1="272.36" y1="190.59" x2="272.36" y2="4.57" xlink:href="#linear-gradient-6"/></defs><title>thefloor-ux-crm-v5</title><g class="cls-2"><g id="Layer_1" data-name="Layer 1"><g class="cls-3"><g class="cls-4"><g class="cls-5"><g class="cls-6"><polygon class="cls-7" points="18.22 7.91 -145.62 207.13 283.22 190.42 18.22 7.91"/><polygon class="cls-8" points="18.22 7.91 -145.62 207.13 -590.86 240.3 18.22 7.91"/><polygon class="cls-9" points="-684.33 7.91 18.22 7.91 -628.42 -151.82 -684.33 7.91"/><polygon class="cls-10" points="-684.33 7.91 -590.86 240.3 18.22 7.91 -684.33 7.91"/><polygon class="cls-11" points="540.72 -325.01 524.5 4.4 18.22 7.91 540.72 -325.01"/><polygon class="cls-12" points="18.22 7.91 283.22 190.42 524.5 4.4 18.22 7.91"/></g></g></g></g><g class="cls-13"><g class="cls-14"><g class="cls-15"><g class="cls-16"><polygon class="cls-17" points="18.97 8.16 -144.87 207.38 283.97 190.67 18.97 8.16"/><polygon class="cls-18" points="18.97 8.16 -144.87 207.38 -590.11 240.55 18.97 8.16"/><polygon class="cls-19" points="-683.58 8.16 18.97 8.16 -627.67 -151.57 -683.58 8.16"/><polygon class="cls-20" points="-683.58 8.16 -590.11 240.55 18.97 8.16 -683.58 8.16"/><polygon class="cls-21" points="541.47 -324.76 525.25 4.65 18.97 8.16 541.47 -324.76"/><polygon class="cls-22" points="18.97 8.16 283.97 190.67 525.25 4.65 18.97 8.16"/></g></g></g></g><g class="cls-23"><g class="cls-24"><g class="cls-25"><polygon class="cls-26" points="18.64 7.91 -145.2 207.13 283.64 190.42 18.64 7.91"/><polygon class="cls-27" points="18.64 7.91 -145.2 207.13 -590.45 240.3 18.64 7.91"/><polygon class="cls-28" points="-683.92 7.91 18.64 7.91 -628 -151.82 -683.92 7.91"/><polygon class="cls-29" points="-683.92 7.91 -590.45 240.3 18.64 7.91 -683.92 7.91"/><polygon class="cls-30" points="541.14 -325.01 524.92 4.4 18.64 7.91 541.14 -325.01"/><polygon class="cls-31" points="18.64 7.91 283.64 190.42 524.92 4.4 18.64 7.91"/></g></g></g><path class="cls-32" d="M55,18.5A1.5,1.5,0,0,1,56.5,20V50A1.5,1.5,0,0,1,55,51.5H19A1.5,1.5,0,0,1,17.5,50V20A1.5,1.5,0,0,1,19,18.5Zm-33,3A1.5,1.5,0,0,0,20.5,23V47A1.5,1.5,0,0,0,22,48.5H52A1.5,1.5,0,0,0,53.5,47V23A1.5,1.5,0,0,0,52,21.5ZM23.5,44A1.5,1.5,0,0,1,25,42.5H49A1.5,1.5,0,0,1,50.5,44h0A1.5,1.5,0,0,1,49,45.5H25A1.5,1.5,0,0,1,23.5,44Zm0-6A1.5,1.5,0,0,1,25,36.5H49A1.5,1.5,0,0,1,50.5,38h0A1.5,1.5,0,0,1,49,39.5H25A1.5,1.5,0,0,1,23.5,38Zm12-6A1.49,1.49,0,0,1,37,30.5H49A1.5,1.5,0,0,1,50.5,32h0A1.49,1.49,0,0,1,49,33.5H37A1.5,1.5,0,0,1,35.5,32Zm-12-6A1.51,1.51,0,0,1,25,24.5h6A1.51,1.51,0,0,1,32.5,26v6A1.51,1.51,0,0,1,31,33.5H25A1.51,1.51,0,0,1,23.5,32Zm12,0A1.49,1.49,0,0,1,37,24.5H49A1.5,1.5,0,0,1,50.5,26h0A1.49,1.49,0,0,1,49,27.5H37A1.5,1.5,0,0,1,35.5,26Z"/><g class="cls-33"><g class="cls-34"><g class="cls-35"><polygon class="cls-36" points="-192.28 -12.53 15.85 339.8 145.92 -128.02 -192.28 -12.53"/><polygon class="cls-37" points="15.85 339.8 258.17 121.27 145.92 -128.02 15.85 339.8"/><polygon class="cls-38" points="-192.28 -12.53 -144.97 499.14 15.85 339.8 -192.28 -12.53"/></g><rect class="cls-39" x="-714" y="-964.5" width="1917" height="1917"/></g></g><g class="cls-40"><g class="cls-41"><g class="cls-42"><polygon class="cls-43" points="-105.67 29.24 82.75 -213.44 -352.51 -416.09 -105.67 29.24"/><polygon class="cls-44" points="82.75 -213.44 140.49 44.77 -105.67 29.24 82.75 -213.44"/><polygon class="cls-45" points="140.49 44.77 -6.66 238.07 -331.66 15.09 140.49 44.77"/><polygon class="cls-46" points="140.49 44.77 57.63 633.71 -6.66 238.07 140.49 44.77"/><polygon class="cls-47" points="57.63 633.71 508.07 226.16 140.49 44.77 57.63 633.71"/></g><rect class="cls-48" x="-1561" y="-1556.5" width="1917" height="1917"/></g></g></g><g id="Layer_2" data-name="Layer 2"><g class="cls-49"><g class="cls-50"><g class="cls-51"><polygon class="cls-52" points="19.22 8.08 -144.62 207.29 284.22 190.59 19.22 8.08"/><polygon class="cls-53" points="19.22 8.08 -144.62 207.29 -589.86 240.47 19.22 8.08"/><polygon class="cls-54" points="-683.33 8.08 19.22 8.08 -627.42 -151.65 -683.33 8.08"/><polygon class="cls-55" points="-683.33 8.08 -589.86 240.47 19.22 8.08 -683.33 8.08"/><polygon class="cls-56" points="541.72 -324.85 525.5 4.57 19.22 8.08 541.72 -324.85"/><polygon class="cls-57" points="19.22 8.08 284.22 190.59 525.5 4.57 19.22 8.08"/></g></g></g></g></g></svg>