<svg xmlns="http://www.w3.org/2000/svg" xmlns:xlink="http://www.w3.org/1999/xlink" viewBox="0 0 74 75"><defs><style>.cls-1{fill:none;}.cls-2{isolation:isolate;}.cls-3{clip-path:url(#clip-path);}.cls-4{clip-path:url(#clip-path-2);}.cls-5{clip-path:url(#clip-path-3);}.cls-6{clip-path:url(#clip-path-4);}.cls-7{fill:url(#linear-gradient);}.cls-8{fill:url(#linear-gradient-2);}.cls-9{fill:url(#linear-gradient-3);}.cls-10{clip-path:url(#clip-path-5);}.cls-11{clip-path:url(#clip-path-6);}.cls-12{clip-path:url(#clip-path-7);}.cls-13{clip-path:url(#clip-path-8);}.cls-14{fill:url(#linear-gradient-4);}.cls-15{fill:url(#linear-gradient-5);}.cls-16{fill:url(#linear-gradient-6);}.cls-17{clip-path:url(#clip-path-9);}.cls-18{clip-path:url(#clip-path-10);}.cls-19{clip-path:url(#clip-path-11);}.cls-20{fill:url(#linear-gradient-7);}.cls-21{fill:url(#linear-gradient-8);}.cls-22{fill:url(#linear-gradient-9);}.cls-23{fill:#fff;stroke:#fff;stroke-miterlimit:10;stroke-width:0.5px;}.cls-24{clip-path:url(#clip-path-12);}.cls-25{clip-path:url(#clip-path-13);}.cls-26{clip-path:url(#clip-path-14);}.cls-27{fill:url(#linear-gradient-10);}.cls-28{fill:url(#linear-gradient-11);}.cls-29{fill:url(#linear-gradient-12);}.cls-30{fill:url(#linear-gradient-13);}.cls-31,.cls-41{mix-blend-mode:multiply;}.cls-31{fill:url(#radial-gradient);}.cls-32{clip-path:url(#clip-path-15);}.cls-33{clip-path:url(#clip-path-16);}.cls-34{clip-path:url(#clip-path-17);}.cls-35{fill:url(#linear-gradient-14);}.cls-36{fill:url(#linear-gradient-15);}.cls-37{fill:url(#linear-gradient-16);}.cls-38{fill:url(#linear-gradient-17);}.cls-39{fill:url(#linear-gradient-18);}.cls-40{fill:url(#linear-gradient-19);}.cls-41{fill:url(#radial-gradient-2);}.cls-42{clip-path:url(#clip-path-18);}.cls-43{clip-path:url(#clip-path-19);}.cls-44{clip-path:url(#clip-path-20);}.cls-45{fill:url(#linear-gradient-20);}.cls-46{fill:url(#linear-gradient-21);}.cls-47{fill:url(#linear-gradient-22);}</style><clipPath id="clip-path"><rect class="cls-1" x="-439" y="765.83" width="587" height="816" rx="12"/></clipPath><clipPath id="clip-path-2"><rect class="cls-1" x="-1719.17" y="136.83" width="1919.15" height="2609" rx="12"/></clipPath><clipPath id="clip-path-3"><rect class="cls-1" x="-1715.5" y="96.83" width="1917" height="1553" rx="12"/></clipPath><clipPath id="clip-path-4"><rect class="cls-1" x="-1716" y="97.83" width="1917" height="1917"/></clipPath><linearGradient id="linear-gradient" x1="-25.2" y1="207.13" x2="-25.2" y2="7.91" gradientUnits="userSpaceOnUse"><stop offset="0" stop-color="#d1d3d4"/><stop offset="0.23" stop-color="#cdcfd0"/><stop offset="0.45" stop-color="#c2c4c5"/><stop offset="0.66" stop-color="#afb1b3"/><stop offset="0.87" stop-color="#949699"/><stop offset="1" stop-color="#808285"/></linearGradient><linearGradient id="linear-gradient-2" x1="185.47" y1="7.91" x2="185.47" y2="-325.01" gradientUnits="userSpaceOnUse"><stop offset="0" stop-color="#fff"/><stop offset="1" stop-color="#d1d3d4"/></linearGradient><linearGradient id="linear-gradient-3" x1="177.36" y1="190.42" x2="177.36" y2="4.4" gradientUnits="userSpaceOnUse"><stop offset="0" stop-color="#fff"/><stop offset="0.41" stop-color="#fbfbfc"/><stop offset="0.79" stop-color="#f0f1f1"/><stop offset="1" stop-color="#e6e7e8"/></linearGradient><clipPath id="clip-path-5"><rect class="cls-1" x="-1048.25" y="766.08" width="586" height="817" rx="12"/></clipPath><clipPath id="clip-path-6"><rect class="cls-1" x="-1718.42" y="137.08" width="1919.15" height="2609" rx="12"/></clipPath><clipPath id="clip-path-7"><rect class="cls-1" x="-1714.75" y="97.08" width="1917" height="1553" rx="12"/></clipPath><clipPath id="clip-path-8"><rect class="cls-1" x="-1715.25" y="98.08" width="1917" height="1917"/></clipPath><linearGradient id="linear-gradient-4" x1="-24.45" y1="207.38" x2="-24.45" y2="8.16" xlink:href="#linear-gradient"/><linearGradient id="linear-gradient-5" x1="186.22" y1="8.16" x2="186.22" y2="-324.76" xlink:href="#linear-gradient-2"/><linearGradient id="linear-gradient-6" x1="178.11" y1="190.67" x2="178.11" y2="4.65" xlink:href="#linear-gradient-3"/><clipPath id="clip-path-9"><rect class="cls-1" x="-1663.58" y="765.83" width="587" height="816" rx="12"/></clipPath><clipPath id="clip-path-10"><rect class="cls-1" x="-1715.08" y="96.83" width="1917" height="1553" rx="12"/></clipPath><clipPath id="clip-path-11"><rect class="cls-1" x="-1715.58" y="97.83" width="1917" height="1917"/></clipPath><linearGradient id="linear-gradient-7" x1="-24.78" y1="207.13" x2="-24.78" y2="7.91" xlink:href="#linear-gradient"/><linearGradient id="linear-gradient-8" x1="185.89" y1="7.91" x2="185.89" y2="-325.01" xlink:href="#linear-gradient-2"/><linearGradient id="linear-gradient-9" x1="177.78" y1="190.42" x2="177.78" y2="4.4" xlink:href="#linear-gradient-3"/><clipPath id="clip-path-12"><rect class="cls-1" x="-756" y="-712.5" width="1810" height="382" rx="12"/></clipPath><clipPath id="clip-path-13"><rect class="cls-1" x="-807.5" y="-965.5" width="1917" height="1553" rx="12"/></clipPath><clipPath id="clip-path-14"><rect class="cls-1" x="-808" y="-964.5" width="1917" height="1917"/></clipPath><linearGradient id="linear-gradient-10" x1="46.37" y1="-115.57" x2="450.21" y2="64.23" gradientUnits="userSpaceOnUse"><stop offset="0" stop-color="#e6e7e8"/><stop offset="0.26" stop-color="#e2e3e4"/><stop offset="0.51" stop-color="#d7d8da"/><stop offset="0.75" stop-color="#c4c5c7"/><stop offset="0.98" stop-color="#a9abae"/><stop offset="1" stop-color="#a7a9ac"/></linearGradient><linearGradient id="linear-gradient-11" x1="-117.18" y1="339.8" x2="-117.18" y2="-128.02" xlink:href="#linear-gradient-3"/><linearGradient id="linear-gradient-12" x1="43.01" y1="339.8" x2="43.01" y2="-128.02" xlink:href="#linear-gradient-2"/><linearGradient id="linear-gradient-13" x1="248.32" y1="-89.84" x2="204.09" y2="137.73" xlink:href="#linear-gradient-2"/><radialGradient id="radial-gradient" cx="939.21" cy="-767.82" r="2358.39" gradientUnits="userSpaceOnUse"><stop offset="0" stop-color="#fff"/><stop offset="0.32" stop-color="#fdfdfd"/><stop offset="0.47" stop-color="#f7f8f8"/><stop offset="0.58" stop-color="#f2f3f3"/><stop offset="0.7" stop-color="#e4e5e6"/><stop offset="0.84" stop-color="#cdced0"/><stop offset="0.98" stop-color="#acaeb1"/><stop offset="1" stop-color="#a7a9ac"/></radialGradient><clipPath id="clip-path-15"><rect class="cls-1" x="-1603" y="-888.5" width="587" height="816" rx="12"/></clipPath><clipPath id="clip-path-16"><rect class="cls-1" x="-1654.5" y="-1557.5" width="1917" height="1553" rx="12"/></clipPath><clipPath id="clip-path-17"><rect class="cls-1" x="-1655" y="-1556.5" width="1917" height="1917"/></clipPath><linearGradient id="linear-gradient-14" x1="125.37" y1="44.77" x2="125.37" y2="-334.69" xlink:href="#linear-gradient"/><linearGradient id="linear-gradient-15" x1="-27.3" y1="-216.56" x2="-79.62" y2="52.58" xlink:href="#linear-gradient-3"/><linearGradient id="linear-gradient-16" x1="-189.58" y1="238.07" x2="-189.58" y2="15.09" gradientUnits="userSpaceOnUse"><stop offset="0" stop-color="#fff"/><stop offset="0.29" stop-color="#fbfbfb"/><stop offset="0.59" stop-color="#eeeeef"/><stop offset="0.91" stop-color="#d8dadb"/><stop offset="1" stop-color="#d1d3d4"/></linearGradient><linearGradient id="linear-gradient-17" x1="-27.08" y1="633.71" x2="-27.08" y2="44.77" xlink:href="#linear-gradient"/><linearGradient id="linear-gradient-18" x1="230.28" y1="226.16" x2="230.28" y2="-334.69" gradientUnits="userSpaceOnUse"><stop offset="0" stop-color="#fff"/><stop offset="1" stop-color="#e6e7e8"/></linearGradient><linearGradient id="linear-gradient-19" x1="188.85" y1="633.71" x2="188.85" y2="44.77" xlink:href="#linear-gradient-16"/><radialGradient id="radial-gradient-2" cx="92.21" cy="-1359.82" r="2358.39" xlink:href="#radial-gradient"/><clipPath id="clip-path-18"><rect class="cls-1" x="-1663" y="350" width="1810" height="382" rx="12"/></clipPath><clipPath id="clip-path-19"><rect class="cls-1" x="-1714.5" y="97" width="1917" height="1553" rx="12"/></clipPath><clipPath id="clip-path-20"><rect class="cls-1" x="-1715" y="98" width="1917" height="1917"/></clipPath><linearGradient id="linear-gradient-20" x1="-24.2" y1="207.29" x2="-24.2" y2="8.08" xlink:href="#linear-gradient"/><linearGradient id="linear-gradient-21" x1="186.47" y1="8.08" x2="186.47" y2="-324.85" xlink:href="#linear-gradient-2"/><linearGradient id="linear-gradient-22" x1="178.36" y1="190.59" x2="178.36" y2="4.57" xlink:href="#linear-gradient-3"/></defs><title>thefloor-ux-crm-v5</title><g class="cls-2"><g id="Layer_1" data-name="Layer 1"><g class="cls-3"><g class="cls-4"><g class="cls-5"><g class="cls-6"><polygon class="cls-7" points="-75.78 7.91 -239.62 207.13 189.22 190.42 -75.78 7.91"/><polygon class="cls-8" points="446.72 -325.01 430.5 4.4 -75.78 7.91 446.72 -325.01"/><polygon class="cls-9" points="-75.78 7.91 189.22 190.42 430.5 4.4 -75.78 7.91"/></g></g></g></g><g class="cls-10"><g class="cls-11"><g class="cls-12"><g class="cls-13"><polygon class="cls-14" points="-75.03 8.16 -238.87 207.38 189.97 190.67 -75.03 8.16"/><polygon class="cls-15" points="447.47 -324.76 431.25 4.65 -75.03 8.16 447.47 -324.76"/><polygon class="cls-16" points="-75.03 8.16 189.97 190.67 431.25 4.65 -75.03 8.16"/></g></g></g></g><g class="cls-17"><g class="cls-18"><g class="cls-19"><polygon class="cls-20" points="-75.36 7.91 -239.2 207.13 189.64 190.42 -75.36 7.91"/><polygon class="cls-21" points="447.14 -325.01 430.92 4.4 -75.36 7.91 447.14 -325.01"/><polygon class="cls-22" points="-75.36 7.91 189.64 190.42 430.92 4.4 -75.36 7.91"/></g></g></g><path class="cls-23" d="M53.49,21.26H49.1V18.64A1.09,1.09,0,0,0,48,17.56H45.68a1.09,1.09,0,0,0-1.08,1.08v2.67H29.68V18.64a1.09,1.09,0,0,0-1.08-1.08H26.26a1.09,1.09,0,0,0-1.07,1.08v2.67H20.74a2.29,2.29,0,0,0-2.29,2.29V49.71A2.3,2.3,0,0,0,20.74,52H53.49a2.3,2.3,0,0,0,2.3-2.29V23.6A2.31,2.31,0,0,0,53.49,21.26Zm-8.23-2.62a.47.47,0,0,1,.47-.47h2.34a.46.46,0,0,1,.46.47V24a.47.47,0,0,1-.46.47H45.73a.47.47,0,0,1-.47-.47V18.64Zm-19.42,0a.47.47,0,0,1,.47-.47h2.34a.47.47,0,0,1,.47.47V24a.48.48,0,0,1-.47.47H26.31a.47.47,0,0,1-.47-.47V18.64Zm-5.1,3.23h4.54V24a1.09,1.09,0,0,0,1.08,1.08H28.7A1.09,1.09,0,0,0,29.77,24v-2.1h15V24a1.09,1.09,0,0,0,1.08,1.08h2.34A1.09,1.09,0,0,0,49.28,24v-2.1h4.21a1.76,1.76,0,0,1,1.74,1.73v5.24H19V23.6A1.7,1.7,0,0,1,20.74,21.87ZM53.49,51.39H20.74A1.76,1.76,0,0,1,19,49.66V29.4H55.23V49.66A1.73,1.73,0,0,1,53.49,51.39Zm-26.9-16.7a.3.3,0,0,1-.28.28H23.5a.28.28,0,0,1,0-.56h2.81A.27.27,0,0,1,26.59,34.69Zm8.05,0a.3.3,0,0,1-.28.28H31.55a.28.28,0,1,1,0-.56h2.81A.27.27,0,0,1,34.64,34.69Zm8,0a.3.3,0,0,1-.29.28H39.6a.28.28,0,1,1,0-.56h2.8A.28.28,0,0,1,42.69,34.69Zm8,0a.3.3,0,0,1-.28.28h-2.8a.28.28,0,1,1,0-.56h2.8A.27.27,0,0,1,50.73,34.69ZM26.59,40.44a.3.3,0,0,1-.28.28H23.5a.28.28,0,0,1,0-.56h2.81A.27.27,0,0,1,26.59,40.44Zm8.05,0a.3.3,0,0,1-.28.28H31.55a.28.28,0,1,1,0-.56h2.81A.27.27,0,0,1,34.64,40.44Zm8,0a.3.3,0,0,1-.29.28H39.6a.28.28,0,1,1,0-.56h2.8A.28.28,0,0,1,42.69,40.44Zm8,0a.3.3,0,0,1-.28.28h-2.8a.28.28,0,1,1,0-.56h2.8A.27.27,0,0,1,50.73,40.44ZM26.59,46.2a.3.3,0,0,1-.28.28H23.5a.28.28,0,1,1,0-.56h2.81A.27.27,0,0,1,26.59,46.2Zm8.05,0a.3.3,0,0,1-.28.28H31.55a.28.28,0,1,1,0-.56h2.81A.27.27,0,0,1,34.64,46.2Zm8,0a.3.3,0,0,1-.29.28H39.6a.28.28,0,1,1,0-.56h2.8A.28.28,0,0,1,42.69,46.2Zm8,0a.3.3,0,0,1-.28.28h-2.8a.28.28,0,1,1,0-.56h2.8A.27.27,0,0,1,50.73,46.2Z"/><g class="cls-24"><g class="cls-25"><g class="cls-26"><polygon class="cls-27" points="400.49 175.91 51.92 -128.02 293.37 -139.41 400.49 175.91"/><polygon class="cls-28" points="-286.29 -12.53 -78.15 339.8 51.92 -128.02 -286.29 -12.53"/><polygon class="cls-29" points="-78.15 339.8 164.17 121.27 51.92 -128.02 -78.15 339.8"/><polygon class="cls-30" points="400.49 175.91 51.92 -128.02 164.17 121.27 400.49 175.91"/></g><rect class="cls-31" x="-808" y="-964.5" width="1917" height="1917"/></g></g><g class="cls-32"><g class="cls-33"><g class="cls-34"><polygon class="cls-35" points="-11.25 -213.44 46.49 44.77 262 -334.69 -11.25 -213.44"/><polygon class="cls-36" points="-11.25 -213.44 46.49 44.77 -199.67 29.24 -11.25 -213.44"/><polygon class="cls-37" points="46.49 44.77 -100.66 238.07 -425.66 15.09 46.49 44.77"/><polygon class="cls-38" points="46.49 44.77 -36.37 633.71 -100.66 238.07 46.49 44.77"/><polygon class="cls-39" points="46.49 44.77 414.07 226.16 262 -334.69 46.49 44.77"/><polygon class="cls-40" points="-36.37 633.71 414.07 226.16 46.49 44.77 -36.37 633.71"/></g><rect class="cls-41" x="-1655" y="-1556.5" width="1917" height="1917"/></g></g></g><g id="Layer_2" data-name="Layer 2"><g class="cls-42"><g class="cls-43"><g class="cls-44"><polygon class="cls-45" points="-74.78 8.08 -238.62 207.29 190.22 190.59 -74.78 8.08"/><polygon class="cls-46" points="447.72 -324.85 431.5 4.57 -74.78 8.08 447.72 -324.85"/><polygon class="cls-47" points="-74.78 8.08 190.22 190.59 431.5 4.57 -74.78 8.08"/></g></g></g></g></g></svg>