<svg xmlns="http://www.w3.org/2000/svg" xmlns:xlink="http://www.w3.org/1999/xlink" viewBox="0 0 74 75"><defs><style>.cls-1{fill:none;}.cls-2{isolation:isolate;}.cls-3{clip-path:url(#clip-path);}.cls-4{clip-path:url(#clip-path-2);}.cls-5{clip-path:url(#clip-path-3);}.cls-6{clip-path:url(#clip-path-4);}.cls-7{fill:url(#linear-gradient);}.cls-8{fill:url(#linear-gradient-2);}.cls-9{fill:url(#linear-gradient-3);}.cls-10{fill:url(#linear-gradient-4);}.cls-11{clip-path:url(#clip-path-5);}.cls-12{clip-path:url(#clip-path-6);}.cls-13{clip-path:url(#clip-path-7);}.cls-14{clip-path:url(#clip-path-8);}.cls-15{fill:url(#linear-gradient-5);}.cls-16{fill:url(#linear-gradient-6);}.cls-17{fill:url(#linear-gradient-7);}.cls-18{fill:url(#linear-gradient-8);}.cls-19{clip-path:url(#clip-path-9);}.cls-20{clip-path:url(#clip-path-10);}.cls-21{clip-path:url(#clip-path-11);}.cls-22{fill:url(#linear-gradient-9);}.cls-23{fill:url(#linear-gradient-10);}.cls-24{fill:url(#linear-gradient-11);}.cls-25{fill:url(#linear-gradient-12);}.cls-26{fill:#424245;}.cls-27{clip-path:url(#clip-path-12);}.cls-28{clip-path:url(#clip-path-13);}.cls-29{clip-path:url(#clip-path-14);}.cls-30{fill:url(#linear-gradient-13);}.cls-31{fill:url(#linear-gradient-14);}.cls-32{fill:url(#linear-gradient-15);}.cls-33,.cls-42{mix-blend-mode:multiply;}.cls-33{fill:url(#radial-gradient);}.cls-34{clip-path:url(#clip-path-15);}.cls-35{clip-path:url(#clip-path-16);}.cls-36{clip-path:url(#clip-path-17);}.cls-37{fill:url(#linear-gradient-16);}.cls-38{fill:url(#linear-gradient-17);}.cls-39{fill:url(#linear-gradient-18);}.cls-40{fill:url(#linear-gradient-19);}.cls-41{fill:url(#linear-gradient-20);}.cls-42{fill:url(#radial-gradient-2);}.cls-43{clip-path:url(#clip-path-18);}.cls-44{clip-path:url(#clip-path-19);}.cls-45{clip-path:url(#clip-path-20);}.cls-46{fill:url(#linear-gradient-21);}.cls-47{fill:url(#linear-gradient-22);}.cls-48{fill:url(#linear-gradient-23);}.cls-49{fill:url(#linear-gradient-24);}</style><clipPath id="clip-path"><rect class="cls-1" x="-157" y="765.83" width="587" height="816" rx="12"/></clipPath><clipPath id="clip-path-2"><rect class="cls-1" x="-1437.17" y="136.83" width="1919.15" height="2609" rx="12"/></clipPath><clipPath id="clip-path-3"><rect class="cls-1" x="-1433.5" y="96.83" width="1917" height="1553" rx="12"/></clipPath><clipPath id="clip-path-4"><rect class="cls-1" x="-1434" y="97.83" width="1917" height="1917"/></clipPath><linearGradient id="linear-gradient" x1="256.8" y1="207.13" x2="256.8" y2="7.91" gradientUnits="userSpaceOnUse"><stop offset="0" stop-color="#d1d3d4"/><stop offset="0.23" stop-color="#cdcfd0"/><stop offset="0.45" stop-color="#c2c4c5"/><stop offset="0.66" stop-color="#afb1b3"/><stop offset="0.87" stop-color="#949699"/><stop offset="1" stop-color="#808285"/></linearGradient><linearGradient id="linear-gradient-2" x1="-98.32" y1="240.3" x2="-98.32" y2="7.91" gradientUnits="userSpaceOnUse"><stop offset="0" stop-color="#fff"/><stop offset="1" stop-color="#a7a9ac"/></linearGradient><linearGradient id="linear-gradient-3" x1="-145.06" y1="7.91" x2="-145.06" y2="-151.82" gradientUnits="userSpaceOnUse"><stop offset="0" stop-color="#fff"/><stop offset="1" stop-color="#d1d3d4"/></linearGradient><linearGradient id="linear-gradient-4" x1="-298.32" y1="-141.3" x2="-43.87" y2="196.37" xlink:href="#linear-gradient"/><clipPath id="clip-path-5"><rect class="cls-1" x="-766.25" y="766.08" width="586" height="817" rx="12"/></clipPath><clipPath id="clip-path-6"><rect class="cls-1" x="-1436.42" y="137.08" width="1919.15" height="2609" rx="12"/></clipPath><clipPath id="clip-path-7"><rect class="cls-1" x="-1432.75" y="97.08" width="1917" height="1553" rx="12"/></clipPath><clipPath id="clip-path-8"><rect class="cls-1" x="-1433.25" y="98.08" width="1917" height="1917"/></clipPath><linearGradient id="linear-gradient-5" x1="257.55" y1="207.38" x2="257.55" y2="8.16" xlink:href="#linear-gradient"/><linearGradient id="linear-gradient-6" x1="-97.57" y1="240.55" x2="-97.57" y2="8.16" xlink:href="#linear-gradient-2"/><linearGradient id="linear-gradient-7" x1="-144.31" y1="8.16" x2="-144.31" y2="-151.57" xlink:href="#linear-gradient-3"/><linearGradient id="linear-gradient-8" x1="-297.57" y1="-141.05" x2="-43.12" y2="196.62" xlink:href="#linear-gradient"/><clipPath id="clip-path-9"><rect class="cls-1" x="-1381.58" y="765.83" width="587" height="816" rx="12"/></clipPath><clipPath id="clip-path-10"><rect class="cls-1" x="-1433.08" y="96.83" width="1917" height="1553" rx="12"/></clipPath><clipPath id="clip-path-11"><rect class="cls-1" x="-1433.58" y="97.83" width="1917" height="1917"/></clipPath><linearGradient id="linear-gradient-9" x1="257.22" y1="207.13" x2="257.22" y2="7.91" xlink:href="#linear-gradient"/><linearGradient id="linear-gradient-10" x1="-97.9" y1="240.3" x2="-97.9" y2="7.91" xlink:href="#linear-gradient-2"/><linearGradient id="linear-gradient-11" x1="-144.64" y1="7.91" x2="-144.64" y2="-151.82" xlink:href="#linear-gradient-3"/><linearGradient id="linear-gradient-12" x1="-297.91" y1="-141.3" x2="-43.45" y2="196.37" xlink:href="#linear-gradient"/><clipPath id="clip-path-12"><rect class="cls-1" x="-474" y="-712.5" width="1810" height="382" rx="12"/></clipPath><clipPath id="clip-path-13"><rect class="cls-1" x="-525.5" y="-965.5" width="1917" height="1553" rx="12"/></clipPath><clipPath id="clip-path-14"><rect class="cls-1" x="-526" y="-964.5" width="1917" height="1917"/></clipPath><linearGradient id="linear-gradient-13" x1="-2040.16" y1="3240.62" x2="-2040.16" y2="2888.98" gradientTransform="translate(3565.57 -709.23) rotate(41.55)" gradientUnits="userSpaceOnUse"><stop offset="0" stop-color="#d1d3d4"/><stop offset="0.32" stop-color="#cdcfd0"/><stop offset="0.62" stop-color="#c2c4c6"/><stop offset="0.91" stop-color="#afb1b4"/><stop offset="1" stop-color="#a7a9ac"/></linearGradient><linearGradient id="linear-gradient-14" x1="164.82" y1="339.8" x2="164.82" y2="-128.02" gradientUnits="userSpaceOnUse"><stop offset="0" stop-color="#fff"/><stop offset="0.41" stop-color="#fbfbfc"/><stop offset="0.79" stop-color="#f0f1f1"/><stop offset="1" stop-color="#e6e7e8"/></linearGradient><linearGradient id="linear-gradient-15" x1="99.78" y1="499.14" x2="99.78" y2="-12.53" xlink:href="#linear-gradient-14"/><radialGradient id="radial-gradient" cx="1221.21" cy="-767.82" r="2358.39" gradientUnits="userSpaceOnUse"><stop offset="0" stop-color="#fff"/><stop offset="0.32" stop-color="#fdfdfd"/><stop offset="0.47" stop-color="#f7f8f8"/><stop offset="0.58" stop-color="#f2f3f3"/><stop offset="0.7" stop-color="#e4e5e6"/><stop offset="0.84" stop-color="#cdced0"/><stop offset="0.98" stop-color="#acaeb1"/><stop offset="1" stop-color="#a7a9ac"/></radialGradient><clipPath id="clip-path-15"><rect class="cls-1" x="-1321" y="-888.5" width="587" height="816" rx="12"/></clipPath><clipPath id="clip-path-16"><rect class="cls-1" x="-1372.5" y="-1557.5" width="1917" height="1553" rx="12"/></clipPath><clipPath id="clip-path-17"><rect class="cls-1" x="-1373" y="-1556.5" width="1917" height="1917"/></clipPath><linearGradient id="linear-gradient-16" x1="-173.36" y1="-167.71" x2="36.13" y2="-208.43" xlink:href="#linear-gradient"/><linearGradient id="linear-gradient-17" x1="-41.09" y1="29.24" x2="-41.09" y2="-122.16" gradientUnits="userSpaceOnUse"><stop offset="0" stop-color="#d1d3d4"/><stop offset="0.44" stop-color="#cdcfd0"/><stop offset="0.85" stop-color="#c2c4c6"/><stop offset="1" stop-color="#bcbec0"/></linearGradient><linearGradient id="linear-gradient-18" x1="53.12" y1="29.24" x2="53.12" y2="-416.09" gradientUnits="userSpaceOnUse"><stop offset="0" stop-color="#fff"/><stop offset="1" stop-color="#e6e7e8"/></linearGradient><linearGradient id="linear-gradient-19" x1="-71.67" y1="387.38" x2="-71.67" y2="15.09" xlink:href="#linear-gradient-14"/><linearGradient id="linear-gradient-20" x1="92.42" y1="238.07" x2="92.42" y2="15.09" gradientUnits="userSpaceOnUse"><stop offset="0" stop-color="#fff"/><stop offset="0.29" stop-color="#fbfbfb"/><stop offset="0.59" stop-color="#eeeeef"/><stop offset="0.91" stop-color="#d8dadb"/><stop offset="1" stop-color="#d1d3d4"/></linearGradient><radialGradient id="radial-gradient-2" cx="374.21" cy="-1359.82" r="2358.39" xlink:href="#radial-gradient"/><clipPath id="clip-path-18"><rect class="cls-1" x="-1381" y="350" width="1810" height="382" rx="12"/></clipPath><clipPath id="clip-path-19"><rect class="cls-1" x="-1432.5" y="97" width="1917" height="1553" rx="12"/></clipPath><clipPath id="clip-path-20"><rect class="cls-1" x="-1433" y="98" width="1917" height="1917"/></clipPath><linearGradient id="linear-gradient-21" x1="257.8" y1="207.29" x2="257.8" y2="8.08" xlink:href="#linear-gradient"/><linearGradient id="linear-gradient-22" x1="-97.32" y1="240.47" x2="-97.32" y2="8.08" xlink:href="#linear-gradient-2"/><linearGradient id="linear-gradient-23" x1="-144.06" y1="8.08" x2="-144.06" y2="-151.65" xlink:href="#linear-gradient-3"/><linearGradient id="linear-gradient-24" x1="-297.32" y1="-141.14" x2="-42.87" y2="196.53" xlink:href="#linear-gradient"/></defs><title>thefloor-ux-crm-v5</title><g class="cls-2"><g id="Layer_1" data-name="Layer 1"><g class="cls-3"><g class="cls-4"><g class="cls-5"><g class="cls-6"><polygon class="cls-7" points="206.22 7.91 42.38 207.13 471.22 190.42 206.22 7.91"/><polygon class="cls-8" points="206.22 7.91 42.38 207.13 -402.86 240.3 206.22 7.91"/><polygon class="cls-9" points="-496.33 7.91 206.22 7.91 -440.42 -151.82 -496.33 7.91"/><polygon class="cls-10" points="-496.33 7.91 -402.86 240.3 206.22 7.91 -496.33 7.91"/></g></g></g></g><g class="cls-11"><g class="cls-12"><g class="cls-13"><g class="cls-14"><polygon class="cls-15" points="206.97 8.16 43.13 207.38 471.97 190.67 206.97 8.16"/><polygon class="cls-16" points="206.97 8.16 43.13 207.38 -402.11 240.55 206.97 8.16"/><polygon class="cls-17" points="-495.58 8.16 206.97 8.16 -439.67 -151.57 -495.58 8.16"/><polygon class="cls-18" points="-495.58 8.16 -402.11 240.55 206.97 8.16 -495.58 8.16"/></g></g></g></g><g class="cls-19"><g class="cls-20"><g class="cls-21"><polygon class="cls-22" points="206.64 7.91 42.8 207.13 471.64 190.42 206.64 7.91"/><polygon class="cls-23" points="206.64 7.91 42.8 207.13 -402.45 240.3 206.64 7.91"/><polygon class="cls-24" points="-495.92 7.91 206.64 7.91 -440 -151.82 -495.92 7.91"/><polygon class="cls-25" points="-495.92 7.91 -402.45 240.3 206.64 7.91 -495.92 7.91"/></g></g></g><path class="cls-26" d="M42.45,32.23A1.58,1.58,0,0,1,44,33.81a12.8,12.8,0,0,1-.18,2,12.23,12.23,0,0,1-9.46,10,12.36,12.36,0,0,1-7.65-.89,12.15,12.15,0,0,1-5.28-4.78A12.34,12.34,0,0,1,19.75,33a12.64,12.64,0,0,1,2.84-7.09A12.16,12.16,0,0,1,36,22.26a12.53,12.53,0,0,1,5.88,4.52,12.32,12.32,0,0,1,2.2,7,1.59,1.59,0,1,1-3.17,0,10.37,10.37,0,0,0-.1-1.47c0,.14,0,.28.06.42a10.86,10.86,0,0,0-.73-2.68l.16.38a11.29,11.29,0,0,0-1-1.81c-.1-.14-.19-.29-.3-.42s.06,0,.08.1a.92.92,0,0,0-.17-.22c-.22-.25-.44-.5-.68-.74a9.62,9.62,0,0,0-.74-.68l-.21-.17c.39.33.19.15.1.08s-.3-.22-.46-.32a10.76,10.76,0,0,0-1.77-1l.38.16a10.77,10.77,0,0,0-2.67-.72l.43.06a10.78,10.78,0,0,0-2.78,0l.42-.06a10.39,10.39,0,0,0-2.66.72l.38-.16a10.06,10.06,0,0,0-1.8,1l-.42.3c-.25.19,0-.07.1-.07s-.18.13-.22.17c-.26.22-.5.44-.74.68a9.51,9.51,0,0,0-.67.74l-.18.21c.34-.4.15-.19.08-.1s-.21.3-.31.46a10.19,10.19,0,0,0-1,1.78l.16-.38a10.44,10.44,0,0,0-.73,2.68c0-.14,0-.28.06-.42a10.34,10.34,0,0,0,0,2.94c0-.14,0-.28-.06-.42a10.44,10.44,0,0,0,.73,2.68l-.16-.38a10.15,10.15,0,0,0,1,1.81l.3.43c.18.24-.06,0-.08-.1s.14.16.18.21a7.85,7.85,0,0,0,.67.74,9.46,9.46,0,0,0,.74.68l.22.17c-.4-.33-.2-.14-.1-.07l.45.31a10.85,10.85,0,0,0,1.78.95l-.38-.15a10.67,10.67,0,0,0,2.66.71l-.42,0a11.67,11.67,0,0,0,2.77,0l-.42,0a10.67,10.67,0,0,0,2.66-.71l-.38.15a10.51,10.51,0,0,0,1.81-1l.42-.3c.25-.18,0,.07-.1.08s.17-.14.21-.18a7.85,7.85,0,0,0,.74-.67,9.62,9.62,0,0,0,.68-.74,1.84,1.84,0,0,1,.17-.22c-.33.4-.15.2-.08.1L39.3,39a12.33,12.33,0,0,0,1-1.79l-.16.38a11.19,11.19,0,0,0,.73-2.68c0,.14,0,.28-.06.42a12.1,12.1,0,0,0,.1-1.47A1.6,1.6,0,0,1,42.45,32.23Z"/><rect class="cls-26" x="44.99" y="38.88" width="1.47" height="15.13" transform="translate(-19.42 48.54) rotate(-47.29)"/><path class="cls-26" d="M39.55,39.65a1.61,1.61,0,0,1,2.24,0l1.36,1.26,6,5.53,3.76,3.47a1.6,1.6,0,0,1,0,2.24c-.32.36-.66.72-1,1.08a1.6,1.6,0,0,1-2.24,0L48.31,52q-3-2.76-6-5.53L38.55,43a1.61,1.61,0,0,1,0-2.24l1-1.08a1.58,1.58,0,1,1,2.24,2.24l-1,1.08V40.73L42.16,42l6,5.53L51.91,51H49.67l1-1.08v2.24L49.3,50.89l-6-5.53-3.76-3.47A1.6,1.6,0,0,1,39.55,39.65Z"/><g class="cls-27"><g class="cls-28"><g class="cls-29"><polygon class="cls-30" points="-4.11 -12.53 43.03 499.14 -237.61 196.02 -4.11 -12.53"/><polygon class="cls-31" points="-4.29 -12.53 203.85 339.8 333.92 -128.02 -4.29 -12.53"/><polygon class="cls-32" points="-4.29 -12.53 43.03 499.14 203.85 339.8 -4.29 -12.53"/></g><rect class="cls-33" x="-526" y="-964.5" width="1917" height="1917"/></g></g><g class="cls-34"><g class="cls-35"><g class="cls-36"><polygon class="cls-37" points="-164.51 -122.16 82.33 29.24 -164.51 -416.09 -164.51 -122.16"/><polygon class="cls-38" points="-164.51 -122.16 -143.66 15.09 82.33 29.24 -164.51 -122.16"/><polygon class="cls-39" points="82.33 29.24 270.75 -213.44 -164.51 -416.09 82.33 29.24"/><polygon class="cls-40" points="-324.68 387.38 181.34 238.07 -143.66 15.09 -324.68 387.38"/><polygon class="cls-41" points="328.49 44.77 181.34 238.07 -143.66 15.09 328.49 44.77"/></g><rect class="cls-42" x="-1373" y="-1556.5" width="1917" height="1917"/></g></g></g><g id="Layer_2" data-name="Layer 2"><g class="cls-43"><g class="cls-44"><g class="cls-45"><polygon class="cls-46" points="207.22 8.08 43.38 207.29 472.22 190.59 207.22 8.08"/><polygon class="cls-47" points="207.22 8.08 43.38 207.29 -401.86 240.47 207.22 8.08"/><polygon class="cls-48" points="-495.33 8.08 207.22 8.08 -439.42 -151.65 -495.33 8.08"/><polygon class="cls-49" points="-495.33 8.08 -401.86 240.47 207.22 8.08 -495.33 8.08"/></g></g></g></g></g></svg>