<svg xmlns="http://www.w3.org/2000/svg" xmlns:xlink="http://www.w3.org/1999/xlink" viewBox="0 0 74 75"><defs><style>.cls-1{fill:none;}.cls-2{isolation:isolate;}.cls-3{clip-path:url(#clip-path);}.cls-4{clip-path:url(#clip-path-2);}.cls-5{clip-path:url(#clip-path-3);}.cls-6{clip-path:url(#clip-path-4);}.cls-7{fill:url(#linear-gradient);}.cls-8{clip-path:url(#clip-path-5);}.cls-9{clip-path:url(#clip-path-6);}.cls-10{clip-path:url(#clip-path-7);}.cls-11{clip-path:url(#clip-path-8);}.cls-12{fill:url(#linear-gradient-2);}.cls-13{clip-path:url(#clip-path-9);}.cls-14{clip-path:url(#clip-path-10);}.cls-15{clip-path:url(#clip-path-11);}.cls-16{fill:url(#linear-gradient-3);}.cls-17{clip-path:url(#clip-path-12);}.cls-18{clip-path:url(#clip-path-13);}.cls-19{clip-path:url(#clip-path-14);}.cls-20{fill:#4f4f4f;}.cls-21{clip-path:url(#clip-path-15);}.cls-22{clip-path:url(#clip-path-16);}.cls-23{clip-path:url(#clip-path-17);}.cls-24{fill:url(#linear-gradient-4);}.cls-25{fill:url(#linear-gradient-5);}.cls-26{fill:url(#linear-gradient-6);}.cls-27{mix-blend-mode:multiply;fill:url(#radial-gradient);}.cls-28{clip-path:url(#clip-path-18);}.cls-29{clip-path:url(#clip-path-19);}.cls-30{clip-path:url(#clip-path-20);}.cls-31{fill:url(#linear-gradient-7);}.cls-32{clip-path:url(#clip-path-21);}.cls-33{clip-path:url(#clip-path-22);}.cls-34{clip-path:url(#clip-path-23);}.cls-35{fill:url(#linear-gradient-8);}</style><clipPath id="clip-path"><rect class="cls-1" x="-721" y="846.83" width="587" height="816" rx="12"/></clipPath><clipPath id="clip-path-2"><rect class="cls-1" x="-2001.17" y="217.83" width="1919.15" height="2609" rx="12"/></clipPath><clipPath id="clip-path-3"><rect class="cls-1" x="-1997.5" y="177.83" width="1917" height="1553" rx="12"/></clipPath><clipPath id="clip-path-4"><rect class="cls-1" x="-1998" y="178.83" width="1917" height="1917"/></clipPath><linearGradient id="linear-gradient" x1="-96.53" y1="88.91" x2="-96.53" y2="-244.01" gradientUnits="userSpaceOnUse"><stop offset="0" stop-color="#fff"/><stop offset="1" stop-color="#d1d3d4"/></linearGradient><clipPath id="clip-path-5"><rect class="cls-1" x="-1330.25" y="847.08" width="586" height="817" rx="12"/></clipPath><clipPath id="clip-path-6"><rect class="cls-1" x="-2000.42" y="218.08" width="1919.15" height="2609" rx="12"/></clipPath><clipPath id="clip-path-7"><rect class="cls-1" x="-1996.75" y="178.08" width="1917" height="1553" rx="12"/></clipPath><clipPath id="clip-path-8"><rect class="cls-1" x="-1997.25" y="179.08" width="1917" height="1917"/></clipPath><linearGradient id="linear-gradient-2" x1="-95.78" y1="89.16" x2="-95.78" y2="-243.76" xlink:href="#linear-gradient"/><clipPath id="clip-path-9"><rect class="cls-1" x="-1945.58" y="846.83" width="587" height="816" rx="12"/></clipPath><clipPath id="clip-path-10"><rect class="cls-1" x="-1997.08" y="177.83" width="1917" height="1553" rx="12"/></clipPath><clipPath id="clip-path-11"><rect class="cls-1" x="-1997.58" y="178.83" width="1917" height="1917"/></clipPath><linearGradient id="linear-gradient-3" x1="-96.11" y1="88.91" x2="-96.11" y2="-244.01" xlink:href="#linear-gradient"/><clipPath id="clip-path-12"><path class="cls-1" d="M31.65,431H1777.92A27.08,27.08,0,0,1,1805,458.08V812.92a.08.08,0,0,1-.08.08H-4.92a.08.08,0,0,1-.08-.08V467.65A36.65,36.65,0,0,1,31.65,431Z"/></clipPath><clipPath id="clip-path-13"><rect class="cls-1" x="-56.5" y="178" width="1917" height="1553" rx="12"/></clipPath><clipPath id="clip-path-14"><rect class="cls-1" x="-57" y="179" width="1917" height="1917"/></clipPath><clipPath id="clip-path-15"><rect class="cls-1" x="-1038" y="-631.5" width="1810" height="382" rx="12"/></clipPath><clipPath id="clip-path-16"><rect class="cls-1" x="-1089.5" y="-884.5" width="1917" height="1553" rx="12"/></clipPath><clipPath id="clip-path-17"><rect class="cls-1" x="-1090" y="-883.5" width="1917" height="1917"/></clipPath><linearGradient id="linear-gradient-4" x1="225.79" y1="256.91" x2="225.79" y2="-75.12" gradientUnits="userSpaceOnUse"><stop offset="0" stop-color="#d1d3d4"/><stop offset="0.23" stop-color="#cdcfd0"/><stop offset="0.45" stop-color="#c2c4c5"/><stop offset="0.66" stop-color="#afb1b3"/><stop offset="0.87" stop-color="#949699"/><stop offset="1" stop-color="#808285"/></linearGradient><linearGradient id="linear-gradient-5" x1="-235.63" y1="-34.57" x2="168.21" y2="145.23" gradientUnits="userSpaceOnUse"><stop offset="0" stop-color="#e6e7e8"/><stop offset="0.26" stop-color="#e2e3e4"/><stop offset="0.51" stop-color="#d7d8da"/><stop offset="0.75" stop-color="#c4c5c7"/><stop offset="0.98" stop-color="#a9abae"/><stop offset="1" stop-color="#a7a9ac"/></linearGradient><linearGradient id="linear-gradient-6" x1="-33.68" y1="-8.84" x2="-77.91" y2="218.73" xlink:href="#linear-gradient"/><radialGradient id="radial-gradient" cx="657.21" cy="-686.82" r="2358.39" gradientUnits="userSpaceOnUse"><stop offset="0" stop-color="#fff"/><stop offset="0.32" stop-color="#fdfdfd"/><stop offset="0.47" stop-color="#f7f8f8"/><stop offset="0.58" stop-color="#f2f3f3"/><stop offset="0.7" stop-color="#e4e5e6"/><stop offset="0.84" stop-color="#cdced0"/><stop offset="0.98" stop-color="#acaeb1"/><stop offset="1" stop-color="#a7a9ac"/></radialGradient><clipPath id="clip-path-18"><rect class="cls-1" x="-1885" y="-807.5" width="587" height="816" rx="12"/></clipPath><clipPath id="clip-path-19"><rect class="cls-1" x="-1936.5" y="-1476.5" width="1917" height="1553" rx="12"/></clipPath><clipPath id="clip-path-20"><rect class="cls-1" x="-1937" y="-1475.5" width="1917" height="1917"/></clipPath><linearGradient id="linear-gradient-7" x1="-51.72" y1="307.16" x2="-51.72" y2="-253.69" gradientUnits="userSpaceOnUse"><stop offset="0" stop-color="#fff"/><stop offset="1" stop-color="#e6e7e8"/></linearGradient><clipPath id="clip-path-21"><rect class="cls-1" x="-1945" y="431" width="1810" height="382" rx="12"/></clipPath><clipPath id="clip-path-22"><rect class="cls-1" x="-1996.5" y="178" width="1917" height="1553" rx="12"/></clipPath><clipPath id="clip-path-23"><rect class="cls-1" x="-1997" y="179" width="1917" height="1917"/></clipPath><linearGradient id="linear-gradient-8" x1="-95.53" y1="89.08" x2="-95.53" y2="-243.85" xlink:href="#linear-gradient"/></defs><title>thefloor-ux-crm-v5</title><g class="cls-2"><g id="Layer_1" data-name="Layer 1"><g class="cls-3"><g class="cls-4"><g class="cls-5"><g class="cls-6"><polygon class="cls-7" points="164.72 -244.01 148.5 85.4 -357.78 88.91 164.72 -244.01"/></g></g></g></g><g class="cls-8"><g class="cls-9"><g class="cls-10"><g class="cls-11"><polygon class="cls-12" points="165.47 -243.76 149.25 85.65 -357.03 89.16 165.47 -243.76"/></g></g></g></g><g class="cls-13"><g class="cls-14"><g class="cls-15"><polygon class="cls-16" points="165.14 -244.01 148.92 85.4 -357.36 88.91 165.14 -244.01"/></g></g></g><path class="cls-20" d="M40.29,50.57c0,2.09-1.65,3-3.74,3H23.41c-2.09,0-3.73-.89-3.73-3V24.43c0-2.09,1.64-3,3.73-3H36.55c2.09,0,3.74.89,3.74,3v7.32H41V24.43A3.69,3.69,0,0,0,37.3,20.7H22.66a3.69,3.69,0,0,0-3.73,3.73V50.57a3.69,3.69,0,0,0,3.73,3.73H37.3A3.69,3.69,0,0,0,41,50.57V43.25h-.74Z"/><polygon class="cls-20" points="45.88 28.39 45.29 28.91 53.65 37.2 31.55 37.2 31.55 37.95 53.73 37.95 45.51 46.09 46.03 46.61 55.07 37.58 45.88 28.39"/><g class="cls-21"><g class="cls-22"><g class="cls-23"><polygon class="cls-24" points="11.37 -58.41 118.49 256.91 440.21 -75.12 11.37 -58.41"/><polygon class="cls-25" points="118.49 256.91 -230.08 -47.02 11.37 -58.41 118.49 256.91"/><polygon class="cls-26" points="118.49 256.91 -230.08 -47.02 -117.83 202.27 118.49 256.91"/></g><rect class="cls-27" x="-1090" y="-883.5" width="1917" height="1917"/></g></g><g class="cls-28"><g class="cls-29"><g class="cls-30"><polygon class="cls-31" points="-235.51 125.77 132.07 307.16 -20 -253.69 -235.51 125.77"/></g></g></g></g><g id="Layer_2" data-name="Layer 2"><g class="cls-32"><g class="cls-33"><g class="cls-34"><polygon class="cls-35" points="165.72 -243.85 149.5 85.57 -356.78 89.08 165.72 -243.85"/></g></g></g></g></g></svg>