<svg xmlns="http://www.w3.org/2000/svg" xmlns:xlink="http://www.w3.org/1999/xlink" viewBox="0 0 74 75"><defs><style>.cls-1{fill:none;}.cls-2{isolation:isolate;}.cls-3{clip-path:url(#clip-path);}.cls-4{clip-path:url(#clip-path-2);}.cls-5{clip-path:url(#clip-path-3);}.cls-6{clip-path:url(#clip-path-4);}.cls-7{fill:url(#linear-gradient);}.cls-8{clip-path:url(#clip-path-5);}.cls-9{clip-path:url(#clip-path-6);}.cls-10{clip-path:url(#clip-path-7);}.cls-11{clip-path:url(#clip-path-8);}.cls-12{fill:url(#linear-gradient-2);}.cls-13{clip-path:url(#clip-path-9);}.cls-14{clip-path:url(#clip-path-10);}.cls-15{clip-path:url(#clip-path-11);}.cls-16{fill:url(#linear-gradient-3);}.cls-17{clip-path:url(#clip-path-12);}.cls-18{clip-path:url(#clip-path-13);}.cls-19{clip-path:url(#clip-path-14);}.cls-20{fill:#4f4f4f;}.cls-21{clip-path:url(#clip-path-15);}.cls-22{clip-path:url(#clip-path-16);}.cls-23{clip-path:url(#clip-path-17);}.cls-24{fill:url(#linear-gradient-4);}.cls-25{fill:url(#linear-gradient-5);}.cls-26,.cls-32{mix-blend-mode:multiply;}.cls-26{fill:url(#radial-gradient);}.cls-27{clip-path:url(#clip-path-18);}.cls-28{clip-path:url(#clip-path-19);}.cls-29{clip-path:url(#clip-path-20);}.cls-30{fill:url(#linear-gradient-6);}.cls-31{fill:url(#linear-gradient-7);}.cls-32{fill:url(#radial-gradient-2);}.cls-33{clip-path:url(#clip-path-21);}.cls-34{clip-path:url(#clip-path-22);}.cls-35{clip-path:url(#clip-path-23);}.cls-36{fill:url(#linear-gradient-8);}</style><clipPath id="clip-path"><rect class="cls-1" x="-627" y="846.83" width="587" height="816" rx="12"/></clipPath><clipPath id="clip-path-2"><rect class="cls-1" x="-1907.17" y="217.83" width="1919.15" height="2609" rx="12"/></clipPath><clipPath id="clip-path-3"><rect class="cls-1" x="-1903.5" y="177.83" width="1917" height="1553" rx="12"/></clipPath><clipPath id="clip-path-4"><rect class="cls-1" x="-1904" y="178.83" width="1917" height="1917"/></clipPath><linearGradient id="linear-gradient" x1="-2.53" y1="88.91" x2="-2.53" y2="-244.01" gradientUnits="userSpaceOnUse"><stop offset="0" stop-color="#fff"/><stop offset="1" stop-color="#d1d3d4"/></linearGradient><clipPath id="clip-path-5"><rect class="cls-1" x="-1236.25" y="847.08" width="586" height="817" rx="12"/></clipPath><clipPath id="clip-path-6"><rect class="cls-1" x="-1906.42" y="218.08" width="1919.15" height="2609" rx="12"/></clipPath><clipPath id="clip-path-7"><rect class="cls-1" x="-1902.75" y="178.08" width="1917" height="1553" rx="12"/></clipPath><clipPath id="clip-path-8"><rect class="cls-1" x="-1903.25" y="179.08" width="1917" height="1917"/></clipPath><linearGradient id="linear-gradient-2" x1="-1.78" y1="89.16" x2="-1.78" y2="-243.76" xlink:href="#linear-gradient"/><clipPath id="clip-path-9"><rect class="cls-1" x="-1851.58" y="846.83" width="587" height="816" rx="12"/></clipPath><clipPath id="clip-path-10"><rect class="cls-1" x="-1903.08" y="177.83" width="1917" height="1553" rx="12"/></clipPath><clipPath id="clip-path-11"><rect class="cls-1" x="-1903.58" y="178.83" width="1917" height="1917"/></clipPath><linearGradient id="linear-gradient-3" x1="-2.11" y1="88.91" x2="-2.11" y2="-244.01" xlink:href="#linear-gradient"/><clipPath id="clip-path-12"><path class="cls-1" d="M125.65,431H1871.92A27.08,27.08,0,0,1,1899,458.08V812.92a.08.08,0,0,1-.08.08H89.08a.08.08,0,0,1-.08-.08V467.65A36.65,36.65,0,0,1,125.65,431Z"/></clipPath><clipPath id="clip-path-13"><rect class="cls-1" x="37.5" y="178" width="1917" height="1553" rx="12"/></clipPath><clipPath id="clip-path-14"><rect class="cls-1" x="37" y="179" width="1917" height="1917"/></clipPath><clipPath id="clip-path-15"><rect class="cls-1" x="-944" y="-631.5" width="1810" height="382" rx="12"/></clipPath><clipPath id="clip-path-16"><rect class="cls-1" x="-995.5" y="-884.5" width="1917" height="1553" rx="12"/></clipPath><clipPath id="clip-path-17"><rect class="cls-1" x="-996" y="-883.5" width="1917" height="1917"/></clipPath><linearGradient id="linear-gradient-4" x1="-141.63" y1="-34.57" x2="262.21" y2="145.23" gradientUnits="userSpaceOnUse"><stop offset="0" stop-color="#e6e7e8"/><stop offset="0.26" stop-color="#e2e3e4"/><stop offset="0.51" stop-color="#d7d8da"/><stop offset="0.75" stop-color="#c4c5c7"/><stop offset="0.98" stop-color="#a9abae"/><stop offset="1" stop-color="#a7a9ac"/></linearGradient><linearGradient id="linear-gradient-5" x1="60.32" y1="-8.84" x2="16.09" y2="218.73" xlink:href="#linear-gradient"/><radialGradient id="radial-gradient" cx="751.21" cy="-686.82" r="2358.39" gradientUnits="userSpaceOnUse"><stop offset="0" stop-color="#fff"/><stop offset="0.32" stop-color="#fdfdfd"/><stop offset="0.47" stop-color="#f7f8f8"/><stop offset="0.58" stop-color="#f2f3f3"/><stop offset="0.7" stop-color="#e4e5e6"/><stop offset="0.84" stop-color="#cdced0"/><stop offset="0.98" stop-color="#acaeb1"/><stop offset="1" stop-color="#a7a9ac"/></radialGradient><clipPath id="clip-path-18"><rect class="cls-1" x="-1791" y="-807.5" width="587" height="816" rx="12"/></clipPath><clipPath id="clip-path-19"><rect class="cls-1" x="-1842.5" y="-1476.5" width="1917" height="1553" rx="12"/></clipPath><clipPath id="clip-path-20"><rect class="cls-1" x="-1843" y="-1475.5" width="1917" height="1917"/></clipPath><linearGradient id="linear-gradient-6" x1="-62.63" y1="125.77" x2="-62.63" y2="-253.69" gradientUnits="userSpaceOnUse"><stop offset="0" stop-color="#d1d3d4"/><stop offset="0.23" stop-color="#cdcfd0"/><stop offset="0.45" stop-color="#c2c4c5"/><stop offset="0.66" stop-color="#afb1b3"/><stop offset="0.87" stop-color="#949699"/><stop offset="1" stop-color="#808285"/></linearGradient><linearGradient id="linear-gradient-7" x1="42.28" y1="307.16" x2="42.28" y2="-253.69" gradientUnits="userSpaceOnUse"><stop offset="0" stop-color="#fff"/><stop offset="1" stop-color="#e6e7e8"/></linearGradient><radialGradient id="radial-gradient-2" cx="-95.79" cy="-1278.82" r="2358.39" xlink:href="#radial-gradient"/><clipPath id="clip-path-21"><rect class="cls-1" x="-1851" y="431" width="1810" height="382" rx="12"/></clipPath><clipPath id="clip-path-22"><rect class="cls-1" x="-1902.5" y="178" width="1917" height="1553" rx="12"/></clipPath><clipPath id="clip-path-23"><rect class="cls-1" x="-1903" y="179" width="1917" height="1917"/></clipPath><linearGradient id="linear-gradient-8" x1="-1.53" y1="89.08" x2="-1.53" y2="-243.85" xlink:href="#linear-gradient"/></defs><title>thefloor-ux-crm-v5</title><g class="cls-2"><g id="Layer_1" data-name="Layer 1"><g class="cls-3"><g class="cls-4"><g class="cls-5"><g class="cls-6"><polygon class="cls-7" points="258.72 -244.01 242.5 85.4 -263.78 88.91 258.72 -244.01"/></g></g></g></g><g class="cls-8"><g class="cls-9"><g class="cls-10"><g class="cls-11"><polygon class="cls-12" points="259.47 -243.76 243.25 85.65 -263.03 89.16 259.47 -243.76"/></g></g></g></g><g class="cls-13"><g class="cls-14"><g class="cls-15"><polygon class="cls-16" points="259.14 -244.01 242.92 85.4 -263.36 88.91 259.14 -244.01"/></g></g></g><path class="cls-20" d="M31.59,49.59h.72a4.69,4.69,0,0,0,9.38,0h.72a5.41,5.41,0,1,1-10.82,0Zm19.11-6.5a4,4,0,0,1,4,4v.72a1.81,1.81,0,0,1-1.8,1.81H21.12a1.81,1.81,0,0,1-1.8-1.81v-.72a4,4,0,0,1,4-4,.35.35,0,0,0,.35-.35V33.35a13.35,13.35,0,1,1,26.7,0v9.39A.35.35,0,0,0,50.7,43.09Zm0,.72a1.07,1.07,0,0,1-1.07-1.07V33.35a12.63,12.63,0,1,0-25.26,0v9.39a1.07,1.07,0,0,1-1.07,1.07A3.26,3.26,0,0,0,20,47.06v.72a1.09,1.09,0,0,0,1.08,1.09H52.88A1.08,1.08,0,0,0,54,47.78v-.72A3.25,3.25,0,0,0,50.7,43.81Z"/><g class="cls-21"><g class="cls-22"><g class="cls-23"><polygon class="cls-24" points="212.49 256.91 -136.08 -47.02 105.37 -58.41 212.49 256.91"/><polygon class="cls-25" points="212.49 256.91 -136.08 -47.02 -23.83 202.27 212.49 256.91"/></g><rect class="cls-26" x="-996" y="-883.5" width="1917" height="1917"/></g></g><g class="cls-27"><g class="cls-28"><g class="cls-29"><polygon class="cls-30" points="-199.25 -132.44 -141.51 125.77 74 -253.69 -199.25 -132.44"/><polygon class="cls-31" points="-141.51 125.77 226.07 307.16 74 -253.69 -141.51 125.77"/></g><rect class="cls-32" x="-1843" y="-1475.5" width="1917" height="1917"/></g></g></g><g id="Layer_2" data-name="Layer 2"><g class="cls-33"><g class="cls-34"><g class="cls-35"><polygon class="cls-36" points="259.72 -243.85 243.5 85.57 -262.78 89.08 259.72 -243.85"/></g></g></g></g></g></svg>