<svg xmlns="http://www.w3.org/2000/svg" xmlns:xlink="http://www.w3.org/1999/xlink" viewBox="0 0 74 75"><defs><style>.cls-1{fill:none;}.cls-2{isolation:isolate;}.cls-3{clip-path:url(#clip-path);}.cls-4{clip-path:url(#clip-path-2);}.cls-5{clip-path:url(#clip-path-3);}.cls-6{clip-path:url(#clip-path-4);}.cls-7{fill:url(#linear-gradient);}.cls-8{fill:url(#linear-gradient-2);}.cls-9{fill:url(#linear-gradient-3);}.cls-10{clip-path:url(#clip-path-5);}.cls-11{clip-path:url(#clip-path-6);}.cls-12{clip-path:url(#clip-path-7);}.cls-13{clip-path:url(#clip-path-8);}.cls-14{fill:url(#linear-gradient-4);}.cls-15{fill:url(#linear-gradient-5);}.cls-16{fill:url(#linear-gradient-6);}.cls-17{clip-path:url(#clip-path-9);}.cls-18{clip-path:url(#clip-path-10);}.cls-19{clip-path:url(#clip-path-11);}.cls-20{fill:url(#linear-gradient-7);}.cls-21{fill:url(#linear-gradient-8);}.cls-22{fill:url(#linear-gradient-9);}.cls-23{clip-path:url(#clip-path-12);}.cls-24{clip-path:url(#clip-path-13);}.cls-25{clip-path:url(#clip-path-14);}.cls-26{fill:#fff;stroke:#fff;stroke-miterlimit:10;stroke-width:0.5px;}.cls-27{clip-path:url(#clip-path-15);}.cls-28{clip-path:url(#clip-path-16);}.cls-29{clip-path:url(#clip-path-17);}.cls-30{fill:url(#linear-gradient-10);}.cls-31{fill:url(#linear-gradient-11);}.cls-32{fill:url(#linear-gradient-12);}.cls-33,.cls-40{mix-blend-mode:multiply;}.cls-33{fill:url(#radial-gradient);}.cls-34{clip-path:url(#clip-path-18);}.cls-35{clip-path:url(#clip-path-19);}.cls-36{clip-path:url(#clip-path-20);}.cls-37{fill:url(#linear-gradient-13);}.cls-38{fill:url(#linear-gradient-14);}.cls-39{fill:url(#linear-gradient-15);}.cls-40{fill:url(#radial-gradient-2);}.cls-41{clip-path:url(#clip-path-21);}.cls-42{clip-path:url(#clip-path-22);}.cls-43{clip-path:url(#clip-path-23);}.cls-44{fill:url(#linear-gradient-16);}.cls-45{fill:url(#linear-gradient-17);}.cls-46{fill:url(#linear-gradient-18);}</style><clipPath id="clip-path"><rect class="cls-1" x="-533" y="765.83" width="587" height="816" rx="12"/></clipPath><clipPath id="clip-path-2"><rect class="cls-1" x="-1813.17" y="136.83" width="1919.15" height="2609" rx="12"/></clipPath><clipPath id="clip-path-3"><rect class="cls-1" x="-1809.5" y="96.83" width="1917" height="1553" rx="12"/></clipPath><clipPath id="clip-path-4"><rect class="cls-1" x="-1810" y="97.83" width="1917" height="1917"/></clipPath><linearGradient id="linear-gradient" x1="-119.2" y1="207.13" x2="-119.2" y2="7.91" gradientUnits="userSpaceOnUse"><stop offset="0" stop-color="#d1d3d4"/><stop offset="0.23" stop-color="#cdcfd0"/><stop offset="0.45" stop-color="#c2c4c5"/><stop offset="0.66" stop-color="#afb1b3"/><stop offset="0.87" stop-color="#949699"/><stop offset="1" stop-color="#808285"/></linearGradient><linearGradient id="linear-gradient-2" x1="91.47" y1="7.91" x2="91.47" y2="-325.01" gradientUnits="userSpaceOnUse"><stop offset="0" stop-color="#fff"/><stop offset="1" stop-color="#d1d3d4"/></linearGradient><linearGradient id="linear-gradient-3" x1="83.36" y1="190.42" x2="83.36" y2="4.4" gradientUnits="userSpaceOnUse"><stop offset="0" stop-color="#fff"/><stop offset="0.41" stop-color="#fbfbfc"/><stop offset="0.79" stop-color="#f0f1f1"/><stop offset="1" stop-color="#e6e7e8"/></linearGradient><clipPath id="clip-path-5"><rect class="cls-1" x="-1142.25" y="766.08" width="586" height="817" rx="12"/></clipPath><clipPath id="clip-path-6"><rect class="cls-1" x="-1812.42" y="137.08" width="1919.15" height="2609" rx="12"/></clipPath><clipPath id="clip-path-7"><rect class="cls-1" x="-1808.75" y="97.08" width="1917" height="1553" rx="12"/></clipPath><clipPath id="clip-path-8"><rect class="cls-1" x="-1809.25" y="98.08" width="1917" height="1917"/></clipPath><linearGradient id="linear-gradient-4" x1="-118.45" y1="207.38" x2="-118.45" y2="8.16" xlink:href="#linear-gradient"/><linearGradient id="linear-gradient-5" x1="92.22" y1="8.16" x2="92.22" y2="-324.76" xlink:href="#linear-gradient-2"/><linearGradient id="linear-gradient-6" x1="84.11" y1="190.67" x2="84.11" y2="4.65" xlink:href="#linear-gradient-3"/><clipPath id="clip-path-9"><rect class="cls-1" x="-1757.58" y="765.83" width="587" height="816" rx="12"/></clipPath><clipPath id="clip-path-10"><rect class="cls-1" x="-1809.08" y="96.83" width="1917" height="1553" rx="12"/></clipPath><clipPath id="clip-path-11"><rect class="cls-1" x="-1809.58" y="97.83" width="1917" height="1917"/></clipPath><linearGradient id="linear-gradient-7" x1="-118.78" y1="207.13" x2="-118.78" y2="7.91" xlink:href="#linear-gradient"/><linearGradient id="linear-gradient-8" x1="91.89" y1="7.91" x2="91.89" y2="-325.01" xlink:href="#linear-gradient-2"/><linearGradient id="linear-gradient-9" x1="83.78" y1="190.42" x2="83.78" y2="4.4" xlink:href="#linear-gradient-3"/><clipPath id="clip-path-12"><path class="cls-1" d="M219.65,350H1965.92A27.08,27.08,0,0,1,1993,377.08V731.92a.08.08,0,0,1-.08.08H183.08a.08.08,0,0,1-.08-.08V386.65A36.65,36.65,0,0,1,219.65,350Z"/></clipPath><clipPath id="clip-path-13"><rect class="cls-1" x="131.5" y="97" width="1917" height="1553" rx="12"/></clipPath><clipPath id="clip-path-14"><rect class="cls-1" x="131" y="98" width="1917" height="1917"/></clipPath><clipPath id="clip-path-15"><rect class="cls-1" x="-850" y="-712.5" width="1810" height="382" rx="12"/></clipPath><clipPath id="clip-path-16"><rect class="cls-1" x="-901.5" y="-965.5" width="1917" height="1553" rx="12"/></clipPath><clipPath id="clip-path-17"><rect class="cls-1" x="-902" y="-964.5" width="1917" height="1917"/></clipPath><linearGradient id="linear-gradient-10" x1="-47.63" y1="-115.57" x2="356.21" y2="64.23" gradientUnits="userSpaceOnUse"><stop offset="0" stop-color="#e6e7e8"/><stop offset="0.26" stop-color="#e2e3e4"/><stop offset="0.51" stop-color="#d7d8da"/><stop offset="0.75" stop-color="#c4c5c7"/><stop offset="0.98" stop-color="#a9abae"/><stop offset="1" stop-color="#a7a9ac"/></linearGradient><linearGradient id="linear-gradient-11" x1="-50.99" y1="339.8" x2="-50.99" y2="-128.02" xlink:href="#linear-gradient-2"/><linearGradient id="linear-gradient-12" x1="154.32" y1="-89.84" x2="110.09" y2="137.73" xlink:href="#linear-gradient-2"/><radialGradient id="radial-gradient" cx="845.21" cy="-767.82" r="2358.39" gradientUnits="userSpaceOnUse"><stop offset="0" stop-color="#fff"/><stop offset="0.32" stop-color="#fdfdfd"/><stop offset="0.47" stop-color="#f7f8f8"/><stop offset="0.58" stop-color="#f2f3f3"/><stop offset="0.7" stop-color="#e4e5e6"/><stop offset="0.84" stop-color="#cdced0"/><stop offset="0.98" stop-color="#acaeb1"/><stop offset="1" stop-color="#a7a9ac"/></radialGradient><clipPath id="clip-path-18"><rect class="cls-1" x="-1697" y="-888.5" width="587" height="816" rx="12"/></clipPath><clipPath id="clip-path-19"><rect class="cls-1" x="-1748.5" y="-1557.5" width="1917" height="1553" rx="12"/></clipPath><clipPath id="clip-path-20"><rect class="cls-1" x="-1749" y="-1556.5" width="1917" height="1917"/></clipPath><linearGradient id="linear-gradient-13" x1="31.37" y1="44.77" x2="31.37" y2="-334.69" xlink:href="#linear-gradient"/><linearGradient id="linear-gradient-14" x1="136.28" y1="226.16" x2="136.28" y2="-334.69" gradientUnits="userSpaceOnUse"><stop offset="0" stop-color="#fff"/><stop offset="1" stop-color="#e6e7e8"/></linearGradient><linearGradient id="linear-gradient-15" x1="94.85" y1="633.71" x2="94.85" y2="44.77" gradientUnits="userSpaceOnUse"><stop offset="0" stop-color="#fff"/><stop offset="0.29" stop-color="#fbfbfb"/><stop offset="0.59" stop-color="#eeeeef"/><stop offset="0.91" stop-color="#d8dadb"/><stop offset="1" stop-color="#d1d3d4"/></linearGradient><radialGradient id="radial-gradient-2" cx="-1.79" cy="-1359.82" r="2358.39" xlink:href="#radial-gradient"/><clipPath id="clip-path-21"><rect class="cls-1" x="-1757" y="350" width="1810" height="382" rx="12"/></clipPath><clipPath id="clip-path-22"><rect class="cls-1" x="-1808.5" y="97" width="1917" height="1553" rx="12"/></clipPath><clipPath id="clip-path-23"><rect class="cls-1" x="-1809" y="98" width="1917" height="1917"/></clipPath><linearGradient id="linear-gradient-16" x1="-118.2" y1="207.29" x2="-118.2" y2="8.08" xlink:href="#linear-gradient"/><linearGradient id="linear-gradient-17" x1="92.47" y1="8.08" x2="92.47" y2="-324.85" xlink:href="#linear-gradient-2"/><linearGradient id="linear-gradient-18" x1="84.36" y1="190.59" x2="84.36" y2="4.57" xlink:href="#linear-gradient-3"/></defs><title>thefloor-ux-crm-v5</title><g class="cls-2"><g id="Layer_1" data-name="Layer 1"><g class="cls-3"><g class="cls-4"><g class="cls-5"><g class="cls-6"><polygon class="cls-7" points="-169.78 7.91 -333.62 207.13 95.22 190.42 -169.78 7.91"/><polygon class="cls-8" points="352.72 -325.01 336.5 4.4 -169.78 7.91 352.72 -325.01"/><polygon class="cls-9" points="-169.78 7.91 95.22 190.42 336.5 4.4 -169.78 7.91"/></g></g></g></g><g class="cls-10"><g class="cls-11"><g class="cls-12"><g class="cls-13"><polygon class="cls-14" points="-169.03 8.16 -332.87 207.38 95.97 190.67 -169.03 8.16"/><polygon class="cls-15" points="353.47 -324.76 337.25 4.65 -169.03 8.16 353.47 -324.76"/><polygon class="cls-16" points="-169.03 8.16 95.97 190.67 337.25 4.65 -169.03 8.16"/></g></g></g></g><g class="cls-17"><g class="cls-18"><g class="cls-19"><polygon class="cls-20" points="-169.36 7.91 -333.2 207.13 95.64 190.42 -169.36 7.91"/><polygon class="cls-21" points="353.14 -325.01 336.92 4.4 -169.36 7.91 353.14 -325.01"/><polygon class="cls-22" points="-169.36 7.91 95.64 190.42 336.92 4.4 -169.36 7.91"/></g></g></g><path class="cls-26" d="M37.1,15.59A19.21,19.21,0,1,0,56.31,34.8,19.23,19.23,0,0,0,37.1,15.59Zm0,38A18.77,18.77,0,1,1,55.87,34.8,18.79,18.79,0,0,1,37.1,53.56Z"/><path class="cls-26" d="M27.91,25.64a1.53,1.53,0,1,0,1.52,1.52A1.53,1.53,0,0,0,27.91,25.64Zm0,2.61A1.09,1.09,0,1,1,29,27.16,1.09,1.09,0,0,1,27.91,28.25Z"/><rect class="cls-26" x="32.32" y="26.94" width="15.5" height="0.44"/><path class="cls-26" d="M27.91,30.73a1.53,1.53,0,1,0,1.52,1.53A1.53,1.53,0,0,0,27.91,30.73Zm0,2.61A1.09,1.09,0,1,1,29,32.26,1.09,1.09,0,0,1,27.91,33.34Z"/><rect class="cls-26" x="32.32" y="32.04" width="15.5" height="0.44"/><path class="cls-26" d="M27.91,35.82a1.53,1.53,0,1,0,1.52,1.52A1.53,1.53,0,0,0,27.91,35.82Zm0,2.61A1.09,1.09,0,1,1,29,37.34,1.09,1.09,0,0,1,27.91,38.43Z"/><rect class="cls-26" x="32.32" y="37.12" width="15.5" height="0.44"/><path class="cls-26" d="M27.91,40.91a1.53,1.53,0,1,0,1.52,1.52A1.53,1.53,0,0,0,27.91,40.91Zm0,2.61A1.09,1.09,0,1,1,29,42.43,1.09,1.09,0,0,1,27.91,43.52Z"/><rect class="cls-26" x="32.32" y="42.21" width="15.5" height="0.44"/><g class="cls-27"><g class="cls-28"><g class="cls-29"><polygon class="cls-30" points="306.49 175.91 -42.08 -128.02 199.37 -139.41 306.49 175.91"/><polygon class="cls-31" points="-172.15 339.8 70.17 121.27 -42.08 -128.02 -172.15 339.8"/><polygon class="cls-32" points="306.49 175.91 -42.08 -128.02 70.17 121.27 306.49 175.91"/></g><rect class="cls-33" x="-902" y="-964.5" width="1917" height="1917"/></g></g><g class="cls-34"><g class="cls-35"><g class="cls-36"><polygon class="cls-37" points="-105.25 -213.44 -47.51 44.77 168 -334.69 -105.25 -213.44"/><polygon class="cls-38" points="-47.51 44.77 320.07 226.16 168 -334.69 -47.51 44.77"/><polygon class="cls-39" points="-130.37 633.71 320.07 226.16 -47.51 44.77 -130.37 633.71"/></g><rect class="cls-40" x="-1749" y="-1556.5" width="1917" height="1917"/></g></g></g><g id="Layer_2" data-name="Layer 2"><g class="cls-41"><g class="cls-42"><g class="cls-43"><polygon class="cls-44" points="-168.78 8.08 -332.62 207.29 96.22 190.59 -168.78 8.08"/><polygon class="cls-45" points="353.72 -324.85 337.5 4.57 -168.78 8.08 353.72 -324.85"/><polygon class="cls-46" points="-168.78 8.08 96.22 190.59 337.5 4.57 -168.78 8.08"/></g></g></g></g></g></svg>