<svg xmlns="http://www.w3.org/2000/svg" xmlns:xlink="http://www.w3.org/1999/xlink" viewBox="0 0 74 75"><defs><style>.cls-1{fill:none;}.cls-2{isolation:isolate;}.cls-3{clip-path:url(#clip-path);}.cls-4{clip-path:url(#clip-path-2);}.cls-5{clip-path:url(#clip-path-3);}.cls-6{clip-path:url(#clip-path-4);}.cls-7{fill:url(#linear-gradient);}.cls-8{clip-path:url(#clip-path-5);}.cls-9{clip-path:url(#clip-path-6);}.cls-10{clip-path:url(#clip-path-7);}.cls-11{clip-path:url(#clip-path-8);}.cls-12{fill:url(#linear-gradient-2);}.cls-13{clip-path:url(#clip-path-9);}.cls-14{clip-path:url(#clip-path-10);}.cls-15{clip-path:url(#clip-path-11);}.cls-16{fill:url(#linear-gradient-3);}.cls-17{clip-path:url(#clip-path-12);}.cls-18{clip-path:url(#clip-path-13);}.cls-19{clip-path:url(#clip-path-14);}.cls-20{fill:#4f4f4f;}.cls-21{clip-path:url(#clip-path-15);}.cls-22{clip-path:url(#clip-path-16);}.cls-23{clip-path:url(#clip-path-17);}.cls-24{fill:url(#linear-gradient-4);}.cls-25{fill:url(#linear-gradient-5);}.cls-26{fill:url(#linear-gradient-6);}.cls-27,.cls-33{mix-blend-mode:multiply;}.cls-27{fill:url(#radial-gradient);}.cls-28{clip-path:url(#clip-path-18);}.cls-29{clip-path:url(#clip-path-19);}.cls-30{clip-path:url(#clip-path-20);}.cls-31{fill:url(#linear-gradient-7);}.cls-32{fill:url(#linear-gradient-8);}.cls-33{fill:url(#radial-gradient-2);}.cls-34{clip-path:url(#clip-path-21);}.cls-35{clip-path:url(#clip-path-22);}.cls-36{clip-path:url(#clip-path-23);}.cls-37{fill:url(#linear-gradient-9);}</style><clipPath id="clip-path"><rect class="cls-1" x="-533" y="846.83" width="587" height="816" rx="12"/></clipPath><clipPath id="clip-path-2"><rect class="cls-1" x="-1813.17" y="217.83" width="1919.15" height="2609" rx="12"/></clipPath><clipPath id="clip-path-3"><rect class="cls-1" x="-1809.5" y="177.83" width="1917" height="1553" rx="12"/></clipPath><clipPath id="clip-path-4"><rect class="cls-1" x="-1810" y="178.83" width="1917" height="1917"/></clipPath><linearGradient id="linear-gradient" x1="91.47" y1="88.91" x2="91.47" y2="-244.01" gradientUnits="userSpaceOnUse"><stop offset="0" stop-color="#fff"/><stop offset="1" stop-color="#d1d3d4"/></linearGradient><clipPath id="clip-path-5"><rect class="cls-1" x="-1142.25" y="847.08" width="586" height="817" rx="12"/></clipPath><clipPath id="clip-path-6"><rect class="cls-1" x="-1812.42" y="218.08" width="1919.15" height="2609" rx="12"/></clipPath><clipPath id="clip-path-7"><rect class="cls-1" x="-1808.75" y="178.08" width="1917" height="1553" rx="12"/></clipPath><clipPath id="clip-path-8"><rect class="cls-1" x="-1809.25" y="179.08" width="1917" height="1917"/></clipPath><linearGradient id="linear-gradient-2" x1="92.22" y1="89.16" x2="92.22" y2="-243.76" xlink:href="#linear-gradient"/><clipPath id="clip-path-9"><rect class="cls-1" x="-1757.58" y="846.83" width="587" height="816" rx="12"/></clipPath><clipPath id="clip-path-10"><rect class="cls-1" x="-1809.08" y="177.83" width="1917" height="1553" rx="12"/></clipPath><clipPath id="clip-path-11"><rect class="cls-1" x="-1809.58" y="178.83" width="1917" height="1917"/></clipPath><linearGradient id="linear-gradient-3" x1="91.89" y1="88.91" x2="91.89" y2="-244.01" xlink:href="#linear-gradient"/><clipPath id="clip-path-12"><path class="cls-1" d="M219.65,431H1965.92A27.08,27.08,0,0,1,1993,458.08V812.92a.08.08,0,0,1-.08.08H183.08a.08.08,0,0,1-.08-.08V467.65A36.65,36.65,0,0,1,219.65,431Z"/></clipPath><clipPath id="clip-path-13"><rect class="cls-1" x="131.5" y="178" width="1917" height="1553" rx="12"/></clipPath><clipPath id="clip-path-14"><rect class="cls-1" x="131" y="179" width="1917" height="1917"/></clipPath><clipPath id="clip-path-15"><rect class="cls-1" x="-850" y="-631.5" width="1810" height="382" rx="12"/></clipPath><clipPath id="clip-path-16"><rect class="cls-1" x="-901.5" y="-884.5" width="1917" height="1553" rx="12"/></clipPath><clipPath id="clip-path-17"><rect class="cls-1" x="-902" y="-883.5" width="1917" height="1917"/></clipPath><linearGradient id="linear-gradient-4" x1="-47.63" y1="-34.57" x2="356.21" y2="145.23" gradientUnits="userSpaceOnUse"><stop offset="0" stop-color="#e6e7e8"/><stop offset="0.26" stop-color="#e2e3e4"/><stop offset="0.51" stop-color="#d7d8da"/><stop offset="0.75" stop-color="#c4c5c7"/><stop offset="0.98" stop-color="#a9abae"/><stop offset="1" stop-color="#a7a9ac"/></linearGradient><linearGradient id="linear-gradient-5" x1="-50.99" y1="420.8" x2="-50.99" y2="-47.02" xlink:href="#linear-gradient"/><linearGradient id="linear-gradient-6" x1="154.32" y1="-8.84" x2="110.09" y2="218.73" xlink:href="#linear-gradient"/><radialGradient id="radial-gradient" cx="845.21" cy="-686.82" r="2358.39" gradientUnits="userSpaceOnUse"><stop offset="0" stop-color="#fff"/><stop offset="0.32" stop-color="#fdfdfd"/><stop offset="0.47" stop-color="#f7f8f8"/><stop offset="0.58" stop-color="#f2f3f3"/><stop offset="0.7" stop-color="#e4e5e6"/><stop offset="0.84" stop-color="#cdced0"/><stop offset="0.98" stop-color="#acaeb1"/><stop offset="1" stop-color="#a7a9ac"/></radialGradient><clipPath id="clip-path-18"><rect class="cls-1" x="-1697" y="-807.5" width="587" height="816" rx="12"/></clipPath><clipPath id="clip-path-19"><rect class="cls-1" x="-1748.5" y="-1476.5" width="1917" height="1553" rx="12"/></clipPath><clipPath id="clip-path-20"><rect class="cls-1" x="-1749" y="-1475.5" width="1917" height="1917"/></clipPath><linearGradient id="linear-gradient-7" x1="31.37" y1="125.77" x2="31.37" y2="-253.69" gradientUnits="userSpaceOnUse"><stop offset="0" stop-color="#d1d3d4"/><stop offset="0.23" stop-color="#cdcfd0"/><stop offset="0.45" stop-color="#c2c4c5"/><stop offset="0.66" stop-color="#afb1b3"/><stop offset="0.87" stop-color="#949699"/><stop offset="1" stop-color="#808285"/></linearGradient><linearGradient id="linear-gradient-8" x1="136.28" y1="307.16" x2="136.28" y2="-253.69" gradientUnits="userSpaceOnUse"><stop offset="0" stop-color="#fff"/><stop offset="1" stop-color="#e6e7e8"/></linearGradient><radialGradient id="radial-gradient-2" cx="-1.79" cy="-1278.82" r="2358.39" xlink:href="#radial-gradient"/><clipPath id="clip-path-21"><rect class="cls-1" x="-1757" y="431" width="1810" height="382" rx="12"/></clipPath><clipPath id="clip-path-22"><rect class="cls-1" x="-1808.5" y="178" width="1917" height="1553" rx="12"/></clipPath><clipPath id="clip-path-23"><rect class="cls-1" x="-1809" y="179" width="1917" height="1917"/></clipPath><linearGradient id="linear-gradient-9" x1="92.47" y1="89.08" x2="92.47" y2="-243.85" xlink:href="#linear-gradient"/></defs><title>thefloor-ux-crm-v5</title><g class="cls-2"><g id="Layer_1" data-name="Layer 1"><g class="cls-3"><g class="cls-4"><g class="cls-5"><g class="cls-6"><polygon class="cls-7" points="352.72 -244.01 336.5 85.4 -169.78 88.91 352.72 -244.01"/></g></g></g></g><g class="cls-8"><g class="cls-9"><g class="cls-10"><g class="cls-11"><polygon class="cls-12" points="353.47 -243.76 337.25 85.65 -169.03 89.16 353.47 -243.76"/></g></g></g></g><g class="cls-13"><g class="cls-14"><g class="cls-15"><polygon class="cls-16" points="353.14 -244.01 336.92 85.4 -169.36 88.91 353.14 -244.01"/></g></g></g><path class="cls-20" d="M17.26,23.85a.82.82,0,0,1,.79-.85H56a.83.83,0,0,1,.79.85v27.3A.82.82,0,0,1,56,52H18.05a.83.83,0,0,1-.79-.85Zm.79,1V50.17c0,.24.13.31.3.17L33,37.69a.34.34,0,0,0,0-.52L18.35,24.66C18.19,24.52,18.05,24.59,18.05,24.83ZM55,50.88,40.38,38.24a.48.48,0,0,0-.61,0l-.6.51a3.46,3.46,0,0,1-4.34,0l-.6-.51a.47.47,0,0,0-.61,0L19,50.88c-.16.15-.12.27.1.27H54.92C55.14,51.15,55.18,51,55,50.88Zm.63-26.22L41,37.17a.34.34,0,0,0,0,.52L55.65,50.34c.16.14.3.07.3-.17V24.83C56,24.59,55.82,24.51,55.65,24.66ZM19,24.12,35.45,38.19a2.47,2.47,0,0,0,3.1,0L55,24.12c.17-.15.13-.27-.09-.27H19.08C18.86,23.85,18.82,24,19,24.12Z"/><g class="cls-21"><g class="cls-22"><g class="cls-23"><polygon class="cls-24" points="306.49 256.91 -42.08 -47.02 199.37 -58.41 306.49 256.91"/><polygon class="cls-25" points="-172.15 420.8 70.17 202.27 -42.08 -47.02 -172.15 420.8"/><polygon class="cls-26" points="306.49 256.91 -42.08 -47.02 70.17 202.27 306.49 256.91"/></g><rect class="cls-27" x="-902" y="-883.5" width="1917" height="1917"/></g></g><g class="cls-28"><g class="cls-29"><g class="cls-30"><polygon class="cls-31" points="-105.25 -132.44 -47.51 125.77 168 -253.69 -105.25 -132.44"/><polygon class="cls-32" points="-47.51 125.77 320.07 307.16 168 -253.69 -47.51 125.77"/></g><rect class="cls-33" x="-1749" y="-1475.5" width="1917" height="1917"/></g></g></g><g id="Layer_2" data-name="Layer 2"><g class="cls-34"><g class="cls-35"><g class="cls-36"><polygon class="cls-37" points="353.72 -243.85 337.5 85.57 -168.78 89.08 353.72 -243.85"/></g></g></g></g></g></svg>