<svg xmlns="http://www.w3.org/2000/svg" xmlns:xlink="http://www.w3.org/1999/xlink" viewBox="0 0 307 152"><defs><style>.cls-1{fill:none;}.cls-2{isolation:isolate;}.cls-3{clip-path:url(#clip-path);}.cls-4{clip-path:url(#clip-path-2);}.cls-5{clip-path:url(#clip-path-3);}.cls-6{clip-path:url(#clip-path-4);}.cls-7{fill:url(#linear-gradient);}.cls-8{fill:url(#linear-gradient-2);}.cls-9{clip-path:url(#clip-path-5);}.cls-10{clip-path:url(#clip-path-6);}.cls-11{clip-path:url(#clip-path-7);}.cls-12{clip-path:url(#clip-path-8);}.cls-13{fill:url(#linear-gradient-3);}.cls-14{fill:url(#linear-gradient-4);}.cls-15{clip-path:url(#clip-path-9);}.cls-16{clip-path:url(#clip-path-10);}.cls-17{clip-path:url(#clip-path-11);}.cls-18{fill:url(#linear-gradient-5);}.cls-19{fill:url(#linear-gradient-6);}.cls-20{fill:#4f4f4f;}.cls-21{clip-path:url(#clip-path-12);}.cls-22{clip-path:url(#clip-path-13);}.cls-23{clip-path:url(#clip-path-14);}.cls-24{fill:url(#linear-gradient-7);}.cls-25{fill:url(#linear-gradient-8);}.cls-26{fill:url(#linear-gradient-9);}.cls-27{fill:url(#linear-gradient-10);}.cls-28{fill:url(#linear-gradient-11);}.cls-29{fill:url(#linear-gradient-12);}.cls-30{fill:url(#linear-gradient-13);}.cls-31{fill:url(#linear-gradient-14);}.cls-32{fill:url(#linear-gradient-15);}.cls-33,.cls-44{mix-blend-mode:multiply;}.cls-33{fill:url(#radial-gradient);}.cls-34{clip-path:url(#clip-path-15);}.cls-35{clip-path:url(#clip-path-16);}.cls-36{clip-path:url(#clip-path-17);}.cls-37{fill:url(#linear-gradient-16);}.cls-38{fill:url(#linear-gradient-17);}.cls-39{fill:url(#linear-gradient-18);}.cls-40{fill:url(#linear-gradient-19);}.cls-41{fill:url(#linear-gradient-20);}.cls-42{fill:url(#linear-gradient-21);}.cls-43{fill:url(#linear-gradient-22);}.cls-44{fill:url(#radial-gradient-2);}.cls-45{clip-path:url(#clip-path-18);}.cls-46{clip-path:url(#clip-path-19);}.cls-47{clip-path:url(#clip-path-20);}.cls-48{fill:url(#linear-gradient-23);}.cls-49{fill:url(#linear-gradient-24);}</style><clipPath id="clip-path"><rect class="cls-1" x="-157" y="1021.83" width="587" height="816" rx="12"/></clipPath><clipPath id="clip-path-2"><rect class="cls-1" x="-1437.17" y="392.83" width="1919.15" height="2609" rx="12"/></clipPath><clipPath id="clip-path-3"><rect class="cls-1" x="-1433.5" y="352.83" width="1917" height="1553" rx="12"/></clipPath><clipPath id="clip-path-4"><rect class="cls-1" x="-1434" y="353.83" width="1917" height="1917"/></clipPath><linearGradient id="linear-gradient" x1="-145.06" y1="263.91" x2="-145.06" y2="104.18" gradientUnits="userSpaceOnUse"><stop offset="0" stop-color="#fff"/><stop offset="1" stop-color="#d1d3d4"/></linearGradient><linearGradient id="linear-gradient-2" x1="467.47" y1="263.91" x2="467.47" y2="-69.01" xlink:href="#linear-gradient"/><clipPath id="clip-path-5"><rect class="cls-1" x="-766.25" y="1022.08" width="586" height="817" rx="12"/></clipPath><clipPath id="clip-path-6"><rect class="cls-1" x="-1436.42" y="393.08" width="1919.15" height="2609" rx="12"/></clipPath><clipPath id="clip-path-7"><rect class="cls-1" x="-1432.75" y="353.08" width="1917" height="1553" rx="12"/></clipPath><clipPath id="clip-path-8"><rect class="cls-1" x="-1433.25" y="354.08" width="1917" height="1917"/></clipPath><linearGradient id="linear-gradient-3" x1="-144.31" y1="264.16" x2="-144.31" y2="104.43" xlink:href="#linear-gradient"/><linearGradient id="linear-gradient-4" x1="468.22" y1="264.16" x2="468.22" y2="-68.76" xlink:href="#linear-gradient"/><clipPath id="clip-path-9"><rect class="cls-1" x="-1381.58" y="1021.83" width="587" height="816" rx="12"/></clipPath><clipPath id="clip-path-10"><rect class="cls-1" x="-1433.08" y="352.83" width="1917" height="1553" rx="12"/></clipPath><clipPath id="clip-path-11"><rect class="cls-1" x="-1433.58" y="353.83" width="1917" height="1917"/></clipPath><linearGradient id="linear-gradient-5" x1="-144.64" y1="263.91" x2="-144.64" y2="104.18" xlink:href="#linear-gradient"/><linearGradient id="linear-gradient-6" x1="467.89" y1="263.91" x2="467.89" y2="-69.01" xlink:href="#linear-gradient"/><clipPath id="clip-path-12"><rect class="cls-1" x="-474" y="-456.5" width="1810" height="382" rx="12"/></clipPath><clipPath id="clip-path-13"><rect class="cls-1" x="-525.5" y="-709.5" width="1917" height="1553" rx="12"/></clipPath><clipPath id="clip-path-14"><rect class="cls-1" x="-526" y="-708.5" width="1917" height="1917"/></clipPath><linearGradient id="linear-gradient-7" x1="-2381.72" y1="3216.82" x2="-2381.72" y2="2754.96" gradientTransform="translate(3735.38 -644.82) rotate(41.55)" gradientUnits="userSpaceOnUse"><stop offset="0" stop-color="#fff"/><stop offset="1" stop-color="#e6e7e8"/></linearGradient><linearGradient id="linear-gradient-8" x1="-2354.57" y1="2933.64" x2="-2354.57" y2="2754.96" gradientTransform="translate(3735.38 -644.82) rotate(41.55)" gradientUnits="userSpaceOnUse"><stop offset="0" stop-color="#e6e7e8"/><stop offset="0.26" stop-color="#e2e3e4"/><stop offset="0.51" stop-color="#d7d8da"/><stop offset="0.75" stop-color="#c4c5c7"/><stop offset="0.98" stop-color="#a9abae"/><stop offset="1" stop-color="#a7a9ac"/></linearGradient><linearGradient id="linear-gradient-9" x1="-2144.8" y1="2933.64" x2="-2144.8" y2="2754.97" xlink:href="#linear-gradient-8"/><linearGradient id="linear-gradient-10" x1="-2144.8" y1="3145.1" x2="-2144.8" y2="2834.36" gradientTransform="translate(3735.38 -644.82) rotate(41.55)" gradientUnits="userSpaceOnUse"><stop offset="0" stop-color="#d1d3d4"/><stop offset="0.23" stop-color="#cdcfd0"/><stop offset="0.45" stop-color="#c2c4c5"/><stop offset="0.66" stop-color="#afb1b3"/><stop offset="0.87" stop-color="#949699"/><stop offset="1" stop-color="#808285"/></linearGradient><linearGradient id="linear-gradient-11" x1="-2308.07" y1="2923.65" x2="-2370.21" y2="3243.36" gradientTransform="translate(3735.38 -644.82) rotate(41.55)" gradientUnits="userSpaceOnUse"><stop offset="0" stop-color="#fff"/><stop offset="0.41" stop-color="#fbfbfc"/><stop offset="0.79" stop-color="#f0f1f1"/><stop offset="1" stop-color="#e6e7e8"/></linearGradient><linearGradient id="linear-gradient-12" x1="-167.11" y1="99.91" x2="-167.11" y2="-232.11" gradientTransform="matrix(1, 0, 0, 1, 0, 0)" xlink:href="#linear-gradient-10"/><linearGradient id="linear-gradient-13" x1="164.82" y1="595.8" x2="164.82" y2="127.98" gradientTransform="matrix(1, 0, 0, 1, 0, 0)" xlink:href="#linear-gradient-11"/><linearGradient id="linear-gradient-14" x1="325.01" y1="595.8" x2="325.01" y2="127.98" xlink:href="#linear-gradient"/><linearGradient id="linear-gradient-15" x1="351.79" y1="-187.68" x2="292.02" y2="119.84" gradientTransform="matrix(1, 0, 0, 1, 0, 0)" xlink:href="#linear-gradient-8"/><radialGradient id="radial-gradient" cx="1221.21" cy="-511.82" r="2358.39" gradientUnits="userSpaceOnUse"><stop offset="0" stop-color="#fff"/><stop offset="0.32" stop-color="#fdfdfd"/><stop offset="0.47" stop-color="#f7f8f8"/><stop offset="0.58" stop-color="#f2f3f3"/><stop offset="0.7" stop-color="#e4e5e6"/><stop offset="0.84" stop-color="#cdced0"/><stop offset="0.98" stop-color="#acaeb1"/><stop offset="1" stop-color="#a7a9ac"/></radialGradient><clipPath id="clip-path-15"><rect class="cls-1" x="-1321" y="-632.5" width="587" height="816" rx="12"/></clipPath><clipPath id="clip-path-16"><rect class="cls-1" x="-1372.5" y="-1301.5" width="1917" height="1553" rx="12"/></clipPath><clipPath id="clip-path-17"><rect class="cls-1" x="-1373" y="-1300.5" width="1917" height="1917"/></clipPath><linearGradient id="linear-gradient-16" x1="-173.36" y1="88.29" x2="36.13" y2="47.57" gradientTransform="matrix(1, 0, 0, 1, 0, 0)" xlink:href="#linear-gradient-10"/><linearGradient id="linear-gradient-17" x1="-41.09" y1="285.24" x2="-41.09" y2="133.84" gradientUnits="userSpaceOnUse"><stop offset="0" stop-color="#d1d3d4"/><stop offset="0.44" stop-color="#cdcfd0"/><stop offset="0.85" stop-color="#c2c4c6"/><stop offset="1" stop-color="#bcbec0"/></linearGradient><linearGradient id="linear-gradient-18" x1="53.12" y1="285.24" x2="53.12" y2="-160.09" gradientTransform="matrix(1, 0, 0, 1, 0, 0)" xlink:href="#linear-gradient-7"/><linearGradient id="linear-gradient-19" x1="53.12" y1="42.56" x2="53.12" y2="-492.12" xlink:href="#linear-gradient"/><linearGradient id="linear-gradient-20" x1="350.6" y1="42.56" x2="350.6" y2="-492.12" gradientTransform="matrix(1, 0, 0, 1, 0, 0)" xlink:href="#linear-gradient-8"/><linearGradient id="linear-gradient-21" x1="407.37" y1="300.77" x2="407.37" y2="-78.69" gradientTransform="matrix(1, 0, 0, 1, 0, 0)" xlink:href="#linear-gradient-10"/><linearGradient id="linear-gradient-22" x1="254.7" y1="39.44" x2="202.38" y2="308.58" gradientTransform="matrix(1, 0, 0, 1, 0, 0)" xlink:href="#linear-gradient-11"/><radialGradient id="radial-gradient-2" cx="374.21" cy="-1103.82" r="2358.39" xlink:href="#radial-gradient"/><clipPath id="clip-path-18"><rect class="cls-1" x="-1381" y="606" width="1810" height="382" rx="12"/></clipPath><clipPath id="clip-path-19"><rect class="cls-1" x="-1432.5" y="353" width="1917" height="1553" rx="12"/></clipPath><clipPath id="clip-path-20"><rect class="cls-1" x="-1433" y="354" width="1917" height="1917"/></clipPath><linearGradient id="linear-gradient-23" x1="-144.06" y1="264.08" x2="-144.06" y2="104.35" xlink:href="#linear-gradient"/><linearGradient id="linear-gradient-24" x1="468.47" y1="264.08" x2="468.47" y2="-68.85" xlink:href="#linear-gradient"/></defs><title>thefloor-ux-crm-v5</title><g class="cls-2"><g id="Layer_1" data-name="Layer 1"><g class="cls-3"><g class="cls-4"><g class="cls-5"><g class="cls-6"><polygon class="cls-7" points="-496.33 263.91 206.22 263.91 -440.42 104.18 -496.33 263.91"/><polygon class="cls-8" points="728.72 -69.01 712.5 260.4 206.22 263.91 728.72 -69.01"/></g></g></g></g><g class="cls-9"><g class="cls-10"><g class="cls-11"><g class="cls-12"><polygon class="cls-13" points="-495.58 264.16 206.97 264.16 -439.67 104.43 -495.58 264.16"/><polygon class="cls-14" points="729.47 -68.76 713.25 260.65 206.97 264.16 729.47 -68.76"/></g></g></g></g><g class="cls-15"><g class="cls-16"><g class="cls-17"><polygon class="cls-18" points="-495.92 263.91 206.64 263.91 -440 104.18 -495.92 263.91"/><polygon class="cls-19" points="729.14 -69.01 712.92 260.4 206.64 263.91 729.14 -69.01"/></g></g></g><path class="cls-20" d="M17.48,134a1.54,1.54,0,0,1-1.54-1.52v-4.18a1.54,1.54,0,0,1,1.54-1.52H81.6a1.55,1.55,0,0,1,1.55,1.52v4.18A1.55,1.55,0,0,1,81.6,134Z"/><path class="cls-20" d="M212.26,25.21a1.53,1.53,0,0,1-1.54-1.52V19.52A1.53,1.53,0,0,1,212.26,18h68.19A1.54,1.54,0,0,1,282,19.52v4.17a1.54,1.54,0,0,1-1.55,1.52Z"/><path class="cls-20" d="M93,25.21a1.54,1.54,0,0,1-1.55-1.52V19.52A1.54,1.54,0,0,1,93,18h29.41A1.53,1.53,0,0,1,124,19.52v4.17a1.53,1.53,0,0,1-1.54,1.52H112.21a.73.73,0,0,0-.77.76V69.63a1.54,1.54,0,0,1-1.55,1.52h-4.26a1.53,1.53,0,0,1-1.54-1.52V26a.73.73,0,0,0-.78-.76Z"/><path class="cls-20" d="M137.18,39.64a.72.72,0,0,0,.77.76h17a.72.72,0,0,0,.77-.76V19.52A1.54,1.54,0,0,1,157.3,18h4.26a1.54,1.54,0,0,1,1.55,1.52V69.63a1.54,1.54,0,0,1-1.55,1.52H157.3a1.54,1.54,0,0,1-1.55-1.52V48.37a.73.73,0,0,0-.77-.76H138a.73.73,0,0,0-.77.76V69.63a1.53,1.53,0,0,1-1.55,1.52h-4.25a1.54,1.54,0,0,1-1.55-1.52V19.52A1.54,1.54,0,0,1,131.38,18h4.25a1.53,1.53,0,0,1,1.55,1.52Z"/><path class="cls-20" d="M178.56,39.64a.72.72,0,0,0,.77.76h18.34a1.53,1.53,0,0,1,1.55,1.52v4.17a1.53,1.53,0,0,1-1.55,1.52H179.33a.73.73,0,0,0-.77.76V63.18a.73.73,0,0,0,.77.76h19.35a1.54,1.54,0,0,1,1.55,1.52v4.17a1.54,1.54,0,0,1-1.55,1.52H172.76a1.54,1.54,0,0,1-1.55-1.52V19.52A1.54,1.54,0,0,1,172.76,18h25.77a1.53,1.53,0,0,1,1.54,1.52V23.7a1.53,1.53,0,0,1-1.54,1.51h-19.2a.73.73,0,0,0-.77.76Z"/><path class="cls-20" d="M100.64,132.45A1.54,1.54,0,0,1,99.09,134H94.84a1.55,1.55,0,0,1-1.55-1.52V82.34a1.54,1.54,0,0,1,1.55-1.52h25.77a1.54,1.54,0,0,1,1.55,1.52v4.17A1.54,1.54,0,0,1,120.61,88H101.42a.73.73,0,0,0-.78.76v13.67a.73.73,0,0,0,.78.76h18.34a1.54,1.54,0,0,1,1.55,1.51v4.18a1.54,1.54,0,0,1-1.55,1.52H101.42a.72.72,0,0,0-.78.76Z"/><path class="cls-20" d="M137.18,126a.72.72,0,0,0,.78.75h18.88a1.55,1.55,0,0,1,1.55,1.52v4.18a1.54,1.54,0,0,1-1.55,1.52H131.38a1.54,1.54,0,0,1-1.55-1.52V82.34a1.54,1.54,0,0,1,1.55-1.52h4.25a1.53,1.53,0,0,1,1.55,1.52Z"/><path class="cls-20" d="M198.49,95.79a118,118,0,0,1,0,22.78c-.93,8.35-7.2,15.79-17.41,15.79-9.29,0-16.18-6-17.42-15.79a112.61,112.61,0,0,1,0-22.78c1-8.28,7.2-15.8,17.42-15.8,9.29,0,16.17,6,17.41,15.8m-27.47,0a111.17,111.17,0,0,0,0,22.78,9.74,9.74,0,0,0,10.06,8.57c5.18,0,9.29-3.11,10.06-8.57a97.51,97.51,0,0,0,0-22.78,9.63,9.63,0,0,0-10.06-8.58c-5,0-9.37,3-10.06,8.58"/><path class="cls-20" d="M241.26,96a118,118,0,0,1,0,22.78c-.93,8.35-7.2,15.79-17.41,15.79-9.29,0-16.18-6-17.41-15.79a111.17,111.17,0,0,1,0-22.78c1-8.27,7.19-15.79,17.41-15.79,9.28,0,16.17,6,17.41,15.79m-27.47,0a111.17,111.17,0,0,0,0,22.78,9.74,9.74,0,0,0,10.06,8.58c5.18,0,9.28-3.11,10.06-8.58a98.06,98.06,0,0,0,0-22.78,9.63,9.63,0,0,0-10.06-8.58c-5,0-9.37,3-10.06,8.58"/><path class="cls-20" d="M257.82,112.71a.72.72,0,0,0-.78.76v19a1.55,1.55,0,0,1-1.55,1.52h-4.25a1.54,1.54,0,0,1-1.55-1.52V82.34a1.53,1.53,0,0,1,1.55-1.52h13.93a16.1,16.1,0,0,1,16.25,15.94,15.87,15.87,0,0,1-8.05,13.59c-1.47.84-2,1.52-1.32,2.89l9.14,18.45a1.48,1.48,0,0,1-1.48,2.28h-4.33a2.27,2.27,0,0,1-2.24-1.52L264,113.62a1.52,1.52,0,0,0-1.47-.91Zm0-24.68a.73.73,0,0,0-.78.76v15.94a.72.72,0,0,0,.78.76h7.35a8.73,8.73,0,1,0,0-17.46Z"/><g class="cls-21"><g class="cls-22"><g class="cls-23"><polygon class="cls-24" points="-274.4 99.91 100.59 53.85 47.32 -232.12 -274.4 99.91"/><polygon class="cls-25" points="244.38 -57.45 100.59 53.85 47.32 -232.12 244.38 -57.45"/><polygon class="cls-26" points="244.38 -57.45 333.92 127.98 100.59 53.85 244.38 -57.45"/><polygon class="cls-27" points="100.59 53.85 -4.29 243.47 333.92 127.98 100.59 53.85"/><polygon class="cls-28" points="100.59 53.85 -4.29 243.47 -274.4 99.91 100.59 53.85"/><polygon class="cls-29" points="-381.53 -215.41 -274.4 99.91 47.31 -232.12 -381.53 -215.41"/><polygon class="cls-30" points="-4.29 243.47 203.85 595.8 333.92 127.98 -4.29 243.47"/><polygon class="cls-31" points="203.85 595.8 446.17 377.27 333.92 127.98 203.85 595.8"/><polyline class="cls-32" points="244.38 -57.45 430.89 -172.31 333.92 127.98"/></g><rect class="cls-33" x="-526" y="-708.5" width="1917" height="1917"/></g></g><g class="cls-34"><g class="cls-35"><g class="cls-36"><polygon class="cls-37" points="-164.51 133.84 82.33 285.24 -164.51 -160.09 -164.51 133.84"/><polygon class="cls-38" points="-164.51 133.84 -143.66 271.09 82.33 285.24 -164.51 133.84"/><polygon class="cls-39" points="82.33 285.24 270.75 42.56 -164.51 -160.09 82.33 285.24"/><polygon class="cls-40" points="157.21 -492.12 270.75 42.56 -164.51 -160.09 157.21 -492.12"/><polygon class="cls-41" points="157.21 -492.12 544 -78.69 270.75 42.56 157.21 -492.12"/><polygon class="cls-42" points="270.75 42.56 328.49 300.77 544 -78.69 270.75 42.56"/><polygon class="cls-43" points="270.75 42.56 328.49 300.77 82.33 285.24 270.75 42.56"/></g><rect class="cls-44" x="-1373" y="-1300.5" width="1917" height="1917"/></g></g></g><g id="Layer_2" data-name="Layer 2"><g class="cls-45"><g class="cls-46"><g class="cls-47"><polygon class="cls-48" points="-495.33 264.08 207.22 264.08 -439.42 104.35 -495.33 264.08"/><polygon class="cls-49" points="729.72 -68.85 713.5 260.57 207.22 264.08 729.72 -68.85"/></g></g></g></g></g></svg>