<svg xmlns="http://www.w3.org/2000/svg" xmlns:xlink="http://www.w3.org/1999/xlink" viewBox="0 0 74 75"><defs><style>.cls-1{fill:none;}.cls-2{isolation:isolate;}.cls-3{clip-path:url(#clip-path);}.cls-4{clip-path:url(#clip-path-2);}.cls-5{clip-path:url(#clip-path-3);}.cls-6{clip-path:url(#clip-path-4);}.cls-7{fill:url(#linear-gradient);}.cls-8{clip-path:url(#clip-path-5);}.cls-9{clip-path:url(#clip-path-6);}.cls-10{clip-path:url(#clip-path-7);}.cls-11{clip-path:url(#clip-path-8);}.cls-12{fill:url(#linear-gradient-2);}.cls-13{clip-path:url(#clip-path-9);}.cls-14{clip-path:url(#clip-path-10);}.cls-15{clip-path:url(#clip-path-11);}.cls-16{fill:url(#linear-gradient-3);}.cls-17{fill:#4f4f4f;}.cls-18{clip-path:url(#clip-path-12);}.cls-19{clip-path:url(#clip-path-13);}.cls-20{clip-path:url(#clip-path-14);}.cls-21{fill:url(#linear-gradient-4);}.cls-22{fill:url(#linear-gradient-5);}.cls-23{fill:url(#linear-gradient-6);}.cls-24{fill:url(#linear-gradient-7);}.cls-25,.cls-31{mix-blend-mode:multiply;}.cls-25{fill:url(#radial-gradient);}.cls-26{clip-path:url(#clip-path-15);}.cls-27{clip-path:url(#clip-path-16);}.cls-28{clip-path:url(#clip-path-17);}.cls-29{fill:url(#linear-gradient-8);}.cls-30{fill:url(#linear-gradient-9);}.cls-31{fill:url(#radial-gradient-2);}.cls-32{clip-path:url(#clip-path-18);}.cls-33{clip-path:url(#clip-path-19);}.cls-34{clip-path:url(#clip-path-20);}.cls-35{fill:url(#linear-gradient-10);}</style><clipPath id="clip-path"><rect class="cls-1" x="-251" y="846.83" width="587" height="816" rx="12"/></clipPath><clipPath id="clip-path-2"><rect class="cls-1" x="-1531.17" y="217.83" width="1919.15" height="2609" rx="12"/></clipPath><clipPath id="clip-path-3"><rect class="cls-1" x="-1527.5" y="177.83" width="1917" height="1553" rx="12"/></clipPath><clipPath id="clip-path-4"><rect class="cls-1" x="-1528" y="178.83" width="1917" height="1917"/></clipPath><linearGradient id="linear-gradient" x1="-239.06" y1="88.91" x2="-239.06" y2="-70.82" gradientUnits="userSpaceOnUse"><stop offset="0" stop-color="#fff"/><stop offset="1" stop-color="#d1d3d4"/></linearGradient><clipPath id="clip-path-5"><rect class="cls-1" x="-860.25" y="847.08" width="586" height="817" rx="12"/></clipPath><clipPath id="clip-path-6"><rect class="cls-1" x="-1530.42" y="218.08" width="1919.15" height="2609" rx="12"/></clipPath><clipPath id="clip-path-7"><rect class="cls-1" x="-1526.75" y="178.08" width="1917" height="1553" rx="12"/></clipPath><clipPath id="clip-path-8"><rect class="cls-1" x="-1527.25" y="179.08" width="1917" height="1917"/></clipPath><linearGradient id="linear-gradient-2" x1="-238.31" y1="89.16" x2="-238.31" y2="-70.57" xlink:href="#linear-gradient"/><clipPath id="clip-path-9"><rect class="cls-1" x="-1475.58" y="846.83" width="587" height="816" rx="12"/></clipPath><clipPath id="clip-path-10"><rect class="cls-1" x="-1527.08" y="177.83" width="1917" height="1553" rx="12"/></clipPath><clipPath id="clip-path-11"><rect class="cls-1" x="-1527.58" y="178.83" width="1917" height="1917"/></clipPath><linearGradient id="linear-gradient-3" x1="-238.64" y1="88.91" x2="-238.64" y2="-70.82" xlink:href="#linear-gradient"/><clipPath id="clip-path-12"><rect class="cls-1" x="-568" y="-631.5" width="1810" height="382" rx="12"/></clipPath><clipPath id="clip-path-13"><rect class="cls-1" x="-619.5" y="-884.5" width="1917" height="1553" rx="12"/></clipPath><clipPath id="clip-path-14"><rect class="cls-1" x="-620" y="-883.5" width="1917" height="1917"/></clipPath><linearGradient id="linear-gradient-4" x1="-2238.8" y1="2970.1" x2="-2238.8" y2="2659.36" gradientTransform="translate(3595.65 -626.5) rotate(41.55)" gradientUnits="userSpaceOnUse"><stop offset="0" stop-color="#d1d3d4"/><stop offset="0.23" stop-color="#cdcfd0"/><stop offset="0.45" stop-color="#c2c4c5"/><stop offset="0.66" stop-color="#afb1b3"/><stop offset="0.87" stop-color="#949699"/><stop offset="1" stop-color="#808285"/></linearGradient><linearGradient id="linear-gradient-5" x1="-2402.07" y1="2748.65" x2="-2464.21" y2="3068.36" gradientTransform="translate(3595.65 -626.5) rotate(41.55)" gradientUnits="userSpaceOnUse"><stop offset="0" stop-color="#fff"/><stop offset="0.41" stop-color="#fbfbfc"/><stop offset="0.79" stop-color="#f0f1f1"/><stop offset="1" stop-color="#e6e7e8"/></linearGradient><linearGradient id="linear-gradient-6" x1="70.82" y1="420.8" x2="70.82" y2="-47.02" gradientTransform="matrix(1, 0, 0, 1, 0, 0)" xlink:href="#linear-gradient-5"/><linearGradient id="linear-gradient-7" x1="5.78" y1="580.14" x2="5.78" y2="68.47" gradientTransform="matrix(1, 0, 0, 1, 0, 0)" xlink:href="#linear-gradient-5"/><radialGradient id="radial-gradient" cx="1127.21" cy="-686.82" r="2358.39" gradientUnits="userSpaceOnUse"><stop offset="0" stop-color="#fff"/><stop offset="0.32" stop-color="#fdfdfd"/><stop offset="0.47" stop-color="#f7f8f8"/><stop offset="0.58" stop-color="#f2f3f3"/><stop offset="0.7" stop-color="#e4e5e6"/><stop offset="0.84" stop-color="#cdced0"/><stop offset="0.98" stop-color="#acaeb1"/><stop offset="1" stop-color="#a7a9ac"/></radialGradient><clipPath id="clip-path-15"><rect class="cls-1" x="-1415" y="-807.5" width="587" height="816" rx="12"/></clipPath><clipPath id="clip-path-16"><rect class="cls-1" x="-1466.5" y="-1476.5" width="1917" height="1553" rx="12"/></clipPath><clipPath id="clip-path-17"><rect class="cls-1" x="-1467" y="-1475.5" width="1917" height="1917"/></clipPath><linearGradient id="linear-gradient-8" x1="-40.88" y1="110.24" x2="-40.88" y2="-335.09" gradientUnits="userSpaceOnUse"><stop offset="0" stop-color="#fff"/><stop offset="1" stop-color="#e6e7e8"/></linearGradient><linearGradient id="linear-gradient-9" x1="160.7" y1="-135.56" x2="108.38" y2="133.58" gradientTransform="matrix(1, 0, 0, 1, 0, 0)" xlink:href="#linear-gradient-5"/><radialGradient id="radial-gradient-2" cx="280.21" cy="-1278.82" r="2358.39" xlink:href="#radial-gradient"/><clipPath id="clip-path-18"><rect class="cls-1" x="-1475" y="431" width="1810" height="382" rx="12"/></clipPath><clipPath id="clip-path-19"><rect class="cls-1" x="-1526.5" y="178" width="1917" height="1553" rx="12"/></clipPath><clipPath id="clip-path-20"><rect class="cls-1" x="-1527" y="179" width="1917" height="1917"/></clipPath><linearGradient id="linear-gradient-10" x1="-238.06" y1="89.08" x2="-238.06" y2="-70.65" xlink:href="#linear-gradient"/></defs><title>thefloor-ux-crm-v5</title><g class="cls-2"><g id="Layer_1" data-name="Layer 1"><g class="cls-3"><g class="cls-4"><g class="cls-5"><g class="cls-6"><polygon class="cls-7" points="-590.33 88.91 112.22 88.91 -534.42 -70.82 -590.33 88.91"/></g></g></g></g><g class="cls-8"><g class="cls-9"><g class="cls-10"><g class="cls-11"><polygon class="cls-12" points="-589.58 89.16 112.97 89.16 -533.67 -70.57 -589.58 89.16"/></g></g></g></g><g class="cls-13"><g class="cls-14"><g class="cls-15"><polygon class="cls-16" points="-589.92 88.91 112.64 88.91 -534 -70.82 -589.92 88.91"/></g></g></g><path class="cls-17" d="M52.64,54.08a1.43,1.43,0,0,1-1.42,1.42H22.78a1.43,1.43,0,0,1-1.42-1.42,15.64,15.64,0,0,1,31.28,0Zm-1,0a14.69,14.69,0,0,0-29.38,0,.48.48,0,0,0,.47.48H51.22A.48.48,0,0,0,51.69,54.08ZM37,37.5a9,9,0,1,1,9-9A9,9,0,0,1,37,37.5Zm0-1a8.06,8.06,0,1,0-8-8A8,8,0,0,0,37,36.55Z"/><g class="cls-18"><g class="cls-19"><g class="cls-20"><polygon class="cls-21" points="6.59 -121.14 -98.28 68.47 239.92 -47.02 6.59 -121.14"/><polygon class="cls-22" points="6.59 -121.14 -98.28 68.47 -368.4 -75.09 6.59 -121.14"/><polygon class="cls-23" points="-98.28 68.47 109.85 420.8 239.92 -47.02 -98.28 68.47"/><polygon class="cls-24" points="-98.28 68.47 -50.97 580.14 109.85 420.8 -98.28 68.47"/></g><rect class="cls-25" x="-620" y="-883.5" width="1917" height="1917"/></g></g><g class="cls-26"><g class="cls-27"><g class="cls-28"><polygon class="cls-29" points="-11.67 110.24 176.75 -132.44 -258.51 -335.09 -11.67 110.24"/><polygon class="cls-30" points="176.75 -132.44 234.49 125.77 -11.67 110.24 176.75 -132.44"/></g><rect class="cls-31" x="-1467" y="-1475.5" width="1917" height="1917"/></g></g></g><g id="Layer_2" data-name="Layer 2"><g class="cls-32"><g class="cls-33"><g class="cls-34"><polygon class="cls-35" points="-589.33 89.08 113.22 89.08 -533.42 -70.65 -589.33 89.08"/></g></g></g></g></g></svg>