<svg xmlns="http://www.w3.org/2000/svg" xmlns:xlink="http://www.w3.org/1999/xlink" viewBox="0 0 74 75"><defs><style>.cls-1{fill:none;}.cls-2{isolation:isolate;}.cls-3{clip-path:url(#clip-path);}.cls-4{clip-path:url(#clip-path-2);}.cls-5{clip-path:url(#clip-path-3);}.cls-6{clip-path:url(#clip-path-4);}.cls-7{fill:url(#linear-gradient);}.cls-8{clip-path:url(#clip-path-5);}.cls-9{clip-path:url(#clip-path-6);}.cls-10{clip-path:url(#clip-path-7);}.cls-11{clip-path:url(#clip-path-8);}.cls-12{fill:url(#linear-gradient-2);}.cls-13{clip-path:url(#clip-path-9);}.cls-14{clip-path:url(#clip-path-10);}.cls-15{clip-path:url(#clip-path-11);}.cls-16{fill:url(#linear-gradient-3);}.cls-17{fill:#4f4f4f;}.cls-18{clip-path:url(#clip-path-12);}.cls-19{clip-path:url(#clip-path-13);}.cls-20{clip-path:url(#clip-path-14);}.cls-21{fill:url(#linear-gradient-4);}.cls-22{fill:url(#linear-gradient-5);}.cls-23{fill:url(#linear-gradient-6);}.cls-24{fill:url(#linear-gradient-7);}.cls-25{fill:url(#linear-gradient-8);}.cls-26,.cls-33{mix-blend-mode:multiply;}.cls-26{fill:url(#radial-gradient);}.cls-27{clip-path:url(#clip-path-15);}.cls-28{clip-path:url(#clip-path-16);}.cls-29{clip-path:url(#clip-path-17);}.cls-30{fill:url(#linear-gradient-9);}.cls-31{fill:url(#linear-gradient-10);}.cls-32{fill:url(#linear-gradient-11);}.cls-33{fill:url(#radial-gradient-2);}.cls-34{clip-path:url(#clip-path-18);}.cls-35{clip-path:url(#clip-path-19);}.cls-36{clip-path:url(#clip-path-20);}.cls-37{fill:url(#linear-gradient-12);}</style><clipPath id="clip-path"><rect class="cls-1" x="-439" y="846.83" width="587" height="816" rx="12"/></clipPath><clipPath id="clip-path-2"><rect class="cls-1" x="-1719.17" y="217.83" width="1919.15" height="2609" rx="12"/></clipPath><clipPath id="clip-path-3"><rect class="cls-1" x="-1715.5" y="177.83" width="1917" height="1553" rx="12"/></clipPath><clipPath id="clip-path-4"><rect class="cls-1" x="-1716" y="178.83" width="1917" height="1917"/></clipPath><linearGradient id="linear-gradient" x1="185.47" y1="88.91" x2="185.47" y2="-244.01" gradientUnits="userSpaceOnUse"><stop offset="0" stop-color="#fff"/><stop offset="1" stop-color="#d1d3d4"/></linearGradient><clipPath id="clip-path-5"><rect class="cls-1" x="-1048.25" y="847.08" width="586" height="817" rx="12"/></clipPath><clipPath id="clip-path-6"><rect class="cls-1" x="-1718.42" y="218.08" width="1919.15" height="2609" rx="12"/></clipPath><clipPath id="clip-path-7"><rect class="cls-1" x="-1714.75" y="178.08" width="1917" height="1553" rx="12"/></clipPath><clipPath id="clip-path-8"><rect class="cls-1" x="-1715.25" y="179.08" width="1917" height="1917"/></clipPath><linearGradient id="linear-gradient-2" x1="186.22" y1="89.16" x2="186.22" y2="-243.76" xlink:href="#linear-gradient"/><clipPath id="clip-path-9"><rect class="cls-1" x="-1663.58" y="846.83" width="587" height="816" rx="12"/></clipPath><clipPath id="clip-path-10"><rect class="cls-1" x="-1715.08" y="177.83" width="1917" height="1553" rx="12"/></clipPath><clipPath id="clip-path-11"><rect class="cls-1" x="-1715.58" y="178.83" width="1917" height="1917"/></clipPath><linearGradient id="linear-gradient-3" x1="185.89" y1="88.91" x2="185.89" y2="-244.01" xlink:href="#linear-gradient"/><clipPath id="clip-path-12"><rect class="cls-1" x="-756" y="-631.5" width="1810" height="382" rx="12"/></clipPath><clipPath id="clip-path-13"><rect class="cls-1" x="-807.5" y="-884.5" width="1917" height="1553" rx="12"/></clipPath><clipPath id="clip-path-14"><rect class="cls-1" x="-808" y="-883.5" width="1917" height="1917"/></clipPath><linearGradient id="linear-gradient-4" x1="-2426.8" y1="2970.1" x2="-2426.8" y2="2659.36" gradientTransform="translate(3548.35 -501.8) rotate(41.55)" gradientUnits="userSpaceOnUse"><stop offset="0" stop-color="#d1d3d4"/><stop offset="0.23" stop-color="#cdcfd0"/><stop offset="0.45" stop-color="#c2c4c5"/><stop offset="0.66" stop-color="#afb1b3"/><stop offset="0.87" stop-color="#949699"/><stop offset="1" stop-color="#808285"/></linearGradient><linearGradient id="linear-gradient-5" x1="46.37" y1="-34.57" x2="450.21" y2="145.23" gradientUnits="userSpaceOnUse"><stop offset="0" stop-color="#e6e7e8"/><stop offset="0.26" stop-color="#e2e3e4"/><stop offset="0.51" stop-color="#d7d8da"/><stop offset="0.75" stop-color="#c4c5c7"/><stop offset="0.98" stop-color="#a9abae"/><stop offset="1" stop-color="#a7a9ac"/></linearGradient><linearGradient id="linear-gradient-6" x1="-117.18" y1="420.8" x2="-117.18" y2="-47.02" gradientUnits="userSpaceOnUse"><stop offset="0" stop-color="#fff"/><stop offset="0.41" stop-color="#fbfbfc"/><stop offset="0.79" stop-color="#f0f1f1"/><stop offset="1" stop-color="#e6e7e8"/></linearGradient><linearGradient id="linear-gradient-7" x1="43.01" y1="420.8" x2="43.01" y2="-47.02" xlink:href="#linear-gradient"/><linearGradient id="linear-gradient-8" x1="248.32" y1="-8.84" x2="204.09" y2="218.73" xlink:href="#linear-gradient"/><radialGradient id="radial-gradient" cx="939.21" cy="-686.82" r="2358.39" gradientUnits="userSpaceOnUse"><stop offset="0" stop-color="#fff"/><stop offset="0.32" stop-color="#fdfdfd"/><stop offset="0.47" stop-color="#f7f8f8"/><stop offset="0.58" stop-color="#f2f3f3"/><stop offset="0.7" stop-color="#e4e5e6"/><stop offset="0.84" stop-color="#cdced0"/><stop offset="0.98" stop-color="#acaeb1"/><stop offset="1" stop-color="#a7a9ac"/></radialGradient><clipPath id="clip-path-15"><rect class="cls-1" x="-1603" y="-807.5" width="587" height="816" rx="12"/></clipPath><clipPath id="clip-path-16"><rect class="cls-1" x="-1654.5" y="-1476.5" width="1917" height="1553" rx="12"/></clipPath><clipPath id="clip-path-17"><rect class="cls-1" x="-1655" y="-1475.5" width="1917" height="1917"/></clipPath><linearGradient id="linear-gradient-9" x1="125.37" y1="125.77" x2="125.37" y2="-253.69" gradientTransform="matrix(1, 0, 0, 1, 0, 0)" xlink:href="#linear-gradient-4"/><linearGradient id="linear-gradient-10" x1="-27.3" y1="-135.56" x2="-79.62" y2="133.58" xlink:href="#linear-gradient-6"/><linearGradient id="linear-gradient-11" x1="230.28" y1="307.16" x2="230.28" y2="-253.69" gradientUnits="userSpaceOnUse"><stop offset="0" stop-color="#fff"/><stop offset="1" stop-color="#e6e7e8"/></linearGradient><radialGradient id="radial-gradient-2" cx="92.21" cy="-1278.82" r="2358.39" xlink:href="#radial-gradient"/><clipPath id="clip-path-18"><rect class="cls-1" x="-1663" y="431" width="1810" height="382" rx="12"/></clipPath><clipPath id="clip-path-19"><rect class="cls-1" x="-1714.5" y="178" width="1917" height="1553" rx="12"/></clipPath><clipPath id="clip-path-20"><rect class="cls-1" x="-1715" y="179" width="1917" height="1917"/></clipPath><linearGradient id="linear-gradient-12" x1="186.47" y1="89.08" x2="186.47" y2="-243.85" xlink:href="#linear-gradient"/></defs><title>thefloor-ux-crm-v5</title><g class="cls-2"><g id="Layer_1" data-name="Layer 1"><g class="cls-3"><g class="cls-4"><g class="cls-5"><g class="cls-6"><polygon class="cls-7" points="446.72 -244.01 430.5 85.4 -75.78 88.91 446.72 -244.01"/></g></g></g></g><g class="cls-8"><g class="cls-9"><g class="cls-10"><g class="cls-11"><polygon class="cls-12" points="447.47 -243.76 431.25 85.65 -75.03 89.16 447.47 -243.76"/></g></g></g></g><g class="cls-13"><g class="cls-14"><g class="cls-15"><polygon class="cls-16" points="447.14 -244.01 430.92 85.4 -75.36 88.91 447.14 -244.01"/></g></g></g><path class="cls-17" d="M51.43,25.59H47.55V23.28a1,1,0,0,0-.94-1H44.54a1,1,0,0,0-.94,1v2.35H30.44V23.28a1,1,0,0,0-.94-1H27.44a1,1,0,0,0-1,1v2.35H22.57a2,2,0,0,0-2,2v23a2,2,0,0,0,2,2H51.43a2,2,0,0,0,2-2v-23A2,2,0,0,0,51.43,25.59Zm-7.26-2.31a.42.42,0,0,1,.42-.42h2.06a.42.42,0,0,1,.41.42V28a.42.42,0,0,1-.41.41H44.59a.42.42,0,0,1-.42-.41v-4.7Zm-17.11,0a.42.42,0,0,1,.42-.42h2.06a.41.41,0,0,1,.41.42V28a.42.42,0,0,1-.41.41H27.48a.42.42,0,0,1-.42-.41v-4.7Zm-4.49,2.84h4V28a1,1,0,0,0,.95.94h2.06a1,1,0,0,0,1-.94V26.12H43.76V28a1,1,0,0,0,1,.94h2.06a1,1,0,0,0,.95-.94V26.12h3.71A1.56,1.56,0,0,1,53,27.65v4.61H21V27.65A1.5,1.5,0,0,1,22.57,26.12Zm28.86,26H22.57A1.56,1.56,0,0,1,21,50.61V32.76H53V50.61A1.53,1.53,0,0,1,51.43,52.14ZM27.72,37.42a.26.26,0,0,1-.24.24H25a.25.25,0,0,1,0-.49h2.48A.23.23,0,0,1,27.72,37.42Zm7.09,0a.26.26,0,0,1-.24.24H32.09a.25.25,0,0,1,0-.49h2.48A.23.23,0,0,1,34.81,37.42Zm7.1,0a.27.27,0,0,1-.25.24H39.19a.25.25,0,1,1,0-.49h2.47A.24.24,0,0,1,41.91,37.42Zm7.09,0a.27.27,0,0,1-.25.24H46.28a.25.25,0,1,1,0-.49h2.47A.24.24,0,0,1,49,37.42ZM27.72,42.49a.27.27,0,0,1-.24.25H25a.27.27,0,0,1-.24-.25.26.26,0,0,1,.24-.25h2.48A.23.23,0,0,1,27.72,42.49Zm7.09,0a.27.27,0,0,1-.24.25H32.09a.27.27,0,0,1-.24-.25.26.26,0,0,1,.24-.25h2.48A.23.23,0,0,1,34.81,42.49Zm7.1,0a.28.28,0,0,1-.25.25H39.19a.27.27,0,0,1-.25-.25.26.26,0,0,1,.25-.25h2.47A.24.24,0,0,1,41.91,42.49Zm7.09,0a.28.28,0,0,1-.25.25H46.28a.27.27,0,0,1-.25-.25.26.26,0,0,1,.25-.25h2.47A.24.24,0,0,1,49,42.49ZM27.72,47.56a.27.27,0,0,1-.24.25H25a.25.25,0,0,1,0-.5h2.48A.24.24,0,0,1,27.72,47.56Zm7.09,0a.27.27,0,0,1-.24.25H32.09a.25.25,0,0,1,0-.5h2.48A.24.24,0,0,1,34.81,47.56Zm7.1,0a.28.28,0,0,1-.25.25H39.19a.25.25,0,0,1,0-.5h2.47A.25.25,0,0,1,41.91,47.56Zm7.09,0a.28.28,0,0,1-.25.25H46.28a.25.25,0,0,1,0-.5h2.47A.25.25,0,0,1,49,47.56Z"/><g class="cls-18"><g class="cls-19"><g class="cls-20"><polygon class="cls-21" points="-181.41 -121.14 -286.29 68.47 51.92 -47.02 -181.41 -121.14"/><polygon class="cls-22" points="400.49 256.91 51.92 -47.02 293.37 -58.41 400.49 256.91"/><polygon class="cls-23" points="-286.29 68.47 -78.15 420.8 51.92 -47.02 -286.29 68.47"/><polygon class="cls-24" points="-78.15 420.8 164.17 202.27 51.92 -47.02 -78.15 420.8"/><polygon class="cls-25" points="400.49 256.91 51.92 -47.02 164.17 202.27 400.49 256.91"/></g><rect class="cls-26" x="-808" y="-883.5" width="1917" height="1917"/></g></g><g class="cls-27"><g class="cls-28"><g class="cls-29"><polygon class="cls-30" points="-11.25 -132.44 46.49 125.77 262 -253.69 -11.25 -132.44"/><polygon class="cls-31" points="-11.25 -132.44 46.49 125.77 -199.67 110.24 -11.25 -132.44"/><polygon class="cls-32" points="46.49 125.77 414.07 307.16 262 -253.69 46.49 125.77"/></g><rect class="cls-33" x="-1655" y="-1475.5" width="1917" height="1917"/></g></g></g><g id="Layer_2" data-name="Layer 2"><g class="cls-34"><g class="cls-35"><g class="cls-36"><polygon class="cls-37" points="447.72 -243.85 431.5 85.57 -74.78 89.08 447.72 -243.85"/></g></g></g></g></g></svg>