<svg xmlns="http://www.w3.org/2000/svg" xmlns:xlink="http://www.w3.org/1999/xlink" viewBox="0 0 74 75"><defs><style>.cls-1{fill:none;}.cls-2{isolation:isolate;}.cls-3{clip-path:url(#clip-path);}.cls-4{clip-path:url(#clip-path-2);}.cls-5{clip-path:url(#clip-path-3);}.cls-6{clip-path:url(#clip-path-4);}.cls-7{fill:url(#linear-gradient);}.cls-8{clip-path:url(#clip-path-5);}.cls-9{clip-path:url(#clip-path-6);}.cls-10{clip-path:url(#clip-path-7);}.cls-11{clip-path:url(#clip-path-8);}.cls-12{fill:url(#linear-gradient-2);}.cls-13{clip-path:url(#clip-path-9);}.cls-14{clip-path:url(#clip-path-10);}.cls-15{clip-path:url(#clip-path-11);}.cls-16{fill:url(#linear-gradient-3);}.cls-17{fill:#4f4f4f;}.cls-18{clip-path:url(#clip-path-12);}.cls-19{clip-path:url(#clip-path-13);}.cls-20{clip-path:url(#clip-path-14);}.cls-21{fill:url(#linear-gradient-4);}.cls-22{fill:url(#linear-gradient-5);}.cls-23{fill:url(#linear-gradient-6);}.cls-24{fill:url(#linear-gradient-7);}.cls-25{fill:url(#linear-gradient-8);}.cls-26,.cls-33{mix-blend-mode:multiply;}.cls-26{fill:url(#radial-gradient);}.cls-27{clip-path:url(#clip-path-15);}.cls-28{clip-path:url(#clip-path-16);}.cls-29{clip-path:url(#clip-path-17);}.cls-30{fill:url(#linear-gradient-9);}.cls-31{fill:url(#linear-gradient-10);}.cls-32{fill:url(#linear-gradient-11);}.cls-33{fill:url(#radial-gradient-2);}.cls-34{clip-path:url(#clip-path-18);}.cls-35{clip-path:url(#clip-path-19);}.cls-36{clip-path:url(#clip-path-20);}.cls-37{fill:url(#linear-gradient-12);}</style><clipPath id="clip-path"><rect class="cls-1" x="-157" y="846.83" width="587" height="816" rx="12"/></clipPath><clipPath id="clip-path-2"><rect class="cls-1" x="-1437.17" y="217.83" width="1919.15" height="2609" rx="12"/></clipPath><clipPath id="clip-path-3"><rect class="cls-1" x="-1433.5" y="177.83" width="1917" height="1553" rx="12"/></clipPath><clipPath id="clip-path-4"><rect class="cls-1" x="-1434" y="178.83" width="1917" height="1917"/></clipPath><linearGradient id="linear-gradient" x1="-145.06" y1="88.91" x2="-145.06" y2="-70.82" gradientUnits="userSpaceOnUse"><stop offset="0" stop-color="#fff"/><stop offset="1" stop-color="#d1d3d4"/></linearGradient><clipPath id="clip-path-5"><rect class="cls-1" x="-766.25" y="847.08" width="586" height="817" rx="12"/></clipPath><clipPath id="clip-path-6"><rect class="cls-1" x="-1436.42" y="218.08" width="1919.15" height="2609" rx="12"/></clipPath><clipPath id="clip-path-7"><rect class="cls-1" x="-1432.75" y="178.08" width="1917" height="1553" rx="12"/></clipPath><clipPath id="clip-path-8"><rect class="cls-1" x="-1433.25" y="179.08" width="1917" height="1917"/></clipPath><linearGradient id="linear-gradient-2" x1="-144.31" y1="89.16" x2="-144.31" y2="-70.57" xlink:href="#linear-gradient"/><clipPath id="clip-path-9"><rect class="cls-1" x="-1381.58" y="846.83" width="587" height="816" rx="12"/></clipPath><clipPath id="clip-path-10"><rect class="cls-1" x="-1433.08" y="177.83" width="1917" height="1553" rx="12"/></clipPath><clipPath id="clip-path-11"><rect class="cls-1" x="-1433.58" y="178.83" width="1917" height="1917"/></clipPath><linearGradient id="linear-gradient-3" x1="-144.64" y1="88.91" x2="-144.64" y2="-70.82" xlink:href="#linear-gradient"/><clipPath id="clip-path-12"><rect class="cls-1" x="-474" y="-631.5" width="1810" height="382" rx="12"/></clipPath><clipPath id="clip-path-13"><rect class="cls-1" x="-525.5" y="-884.5" width="1917" height="1553" rx="12"/></clipPath><clipPath id="clip-path-14"><rect class="cls-1" x="-526" y="-883.5" width="1917" height="1917"/></clipPath><linearGradient id="linear-gradient-4" x1="-2144.8" y1="2970.1" x2="-2144.8" y2="2659.36" gradientTransform="translate(3619.3 -688.85) rotate(41.55)" gradientUnits="userSpaceOnUse"><stop offset="0" stop-color="#d1d3d4"/><stop offset="0.23" stop-color="#cdcfd0"/><stop offset="0.45" stop-color="#c2c4c5"/><stop offset="0.66" stop-color="#afb1b3"/><stop offset="0.87" stop-color="#949699"/><stop offset="1" stop-color="#808285"/></linearGradient><linearGradient id="linear-gradient-5" x1="-2308.07" y1="2748.65" x2="-2370.21" y2="3068.36" gradientTransform="translate(3619.3 -688.85) rotate(41.55)" gradientUnits="userSpaceOnUse"><stop offset="0" stop-color="#fff"/><stop offset="0.41" stop-color="#fbfbfc"/><stop offset="0.79" stop-color="#f0f1f1"/><stop offset="1" stop-color="#e6e7e8"/></linearGradient><linearGradient id="linear-gradient-6" x1="-2040.16" y1="3321.62" x2="-2040.16" y2="2969.98" gradientTransform="translate(3619.3 -688.85) rotate(41.55)" gradientUnits="userSpaceOnUse"><stop offset="0" stop-color="#d1d3d4"/><stop offset="0.32" stop-color="#cdcfd0"/><stop offset="0.62" stop-color="#c2c4c6"/><stop offset="0.91" stop-color="#afb1b4"/><stop offset="1" stop-color="#a7a9ac"/></linearGradient><linearGradient id="linear-gradient-7" x1="164.82" y1="420.8" x2="164.82" y2="-47.02" gradientTransform="matrix(1, 0, 0, 1, 0, 0)" xlink:href="#linear-gradient-5"/><linearGradient id="linear-gradient-8" x1="99.78" y1="580.14" x2="99.78" y2="68.47" gradientTransform="matrix(1, 0, 0, 1, 0, 0)" xlink:href="#linear-gradient-5"/><radialGradient id="radial-gradient" cx="1221.21" cy="-686.82" r="2358.39" gradientUnits="userSpaceOnUse"><stop offset="0" stop-color="#fff"/><stop offset="0.32" stop-color="#fdfdfd"/><stop offset="0.47" stop-color="#f7f8f8"/><stop offset="0.58" stop-color="#f2f3f3"/><stop offset="0.7" stop-color="#e4e5e6"/><stop offset="0.84" stop-color="#cdced0"/><stop offset="0.98" stop-color="#acaeb1"/><stop offset="1" stop-color="#a7a9ac"/></radialGradient><clipPath id="clip-path-15"><rect class="cls-1" x="-1321" y="-807.5" width="587" height="816" rx="12"/></clipPath><clipPath id="clip-path-16"><rect class="cls-1" x="-1372.5" y="-1476.5" width="1917" height="1553" rx="12"/></clipPath><clipPath id="clip-path-17"><rect class="cls-1" x="-1373" y="-1475.5" width="1917" height="1917"/></clipPath><linearGradient id="linear-gradient-9" x1="-173.36" y1="-86.71" x2="36.13" y2="-127.43" gradientTransform="matrix(1, 0, 0, 1, 0, 0)" xlink:href="#linear-gradient-4"/><linearGradient id="linear-gradient-10" x1="-41.09" y1="110.24" x2="-41.09" y2="-41.16" gradientUnits="userSpaceOnUse"><stop offset="0" stop-color="#d1d3d4"/><stop offset="0.44" stop-color="#cdcfd0"/><stop offset="0.85" stop-color="#c2c4c6"/><stop offset="1" stop-color="#bcbec0"/></linearGradient><linearGradient id="linear-gradient-11" x1="53.12" y1="110.24" x2="53.12" y2="-335.09" gradientUnits="userSpaceOnUse"><stop offset="0" stop-color="#fff"/><stop offset="1" stop-color="#e6e7e8"/></linearGradient><radialGradient id="radial-gradient-2" cx="374.21" cy="-1278.82" r="2358.39" xlink:href="#radial-gradient"/><clipPath id="clip-path-18"><rect class="cls-1" x="-1381" y="431" width="1810" height="382" rx="12"/></clipPath><clipPath id="clip-path-19"><rect class="cls-1" x="-1432.5" y="178" width="1917" height="1553" rx="12"/></clipPath><clipPath id="clip-path-20"><rect class="cls-1" x="-1433" y="179" width="1917" height="1917"/></clipPath><linearGradient id="linear-gradient-12" x1="-144.06" y1="89.08" x2="-144.06" y2="-70.65" xlink:href="#linear-gradient"/></defs><title>thefloor-ux-crm-v5</title><g class="cls-2"><g id="Layer_1" data-name="Layer 1"><g class="cls-3"><g class="cls-4"><g class="cls-5"><g class="cls-6"><polygon class="cls-7" points="-496.33 88.91 206.22 88.91 -440.42 -70.82 -496.33 88.91"/></g></g></g></g><g class="cls-8"><g class="cls-9"><g class="cls-10"><g class="cls-11"><polygon class="cls-12" points="-495.58 89.16 206.97 89.16 -439.67 -70.57 -495.58 89.16"/></g></g></g></g><g class="cls-13"><g class="cls-14"><g class="cls-15"><polygon class="cls-16" points="-495.92 88.91 206.64 88.91 -440 -70.82 -495.92 88.91"/></g></g></g><path class="cls-17" d="M49.12,33,37,21.44,24.88,33V53.87H49.12Zm.83.8v20.9H24.05V33.81L18.9,38.72l-.57-.61L37,20.29,55.67,38.11l-.57.61Z"/><g class="cls-18"><g class="cls-19"><g class="cls-20"><polygon class="cls-21" points="100.59 -121.14 -4.29 68.47 333.92 -47.02 100.59 -121.14"/><polygon class="cls-22" points="100.59 -121.14 -4.29 68.47 -274.4 -75.09 100.59 -121.14"/><polygon class="cls-23" points="-4.11 68.47 43.03 580.14 -237.61 277.02 -4.11 68.47"/><polygon class="cls-24" points="-4.29 68.47 203.85 420.8 333.92 -47.02 -4.29 68.47"/><polygon class="cls-25" points="-4.29 68.47 43.03 580.14 203.85 420.8 -4.29 68.47"/></g><rect class="cls-26" x="-526" y="-883.5" width="1917" height="1917"/></g></g><g class="cls-27"><g class="cls-28"><g class="cls-29"><polygon class="cls-30" points="-164.51 -41.16 82.33 110.24 -164.51 -335.09 -164.51 -41.16"/><polygon class="cls-31" points="-164.51 -41.16 -143.66 96.09 82.33 110.24 -164.51 -41.16"/><polygon class="cls-32" points="82.33 110.24 270.75 -132.44 -164.51 -335.09 82.33 110.24"/></g><rect class="cls-33" x="-1373" y="-1475.5" width="1917" height="1917"/></g></g></g><g id="Layer_2" data-name="Layer 2"><g class="cls-34"><g class="cls-35"><g class="cls-36"><polygon class="cls-37" points="-495.33 89.08 207.22 89.08 -439.42 -70.65 -495.33 89.08"/></g></g></g></g></g></svg>