<svg xmlns="http://www.w3.org/2000/svg" xmlns:xlink="http://www.w3.org/1999/xlink" viewBox="0 0 74 75"><defs><style>.cls-1{fill:none;}.cls-2{isolation:isolate;}.cls-3{clip-path:url(#clip-path);}.cls-4{clip-path:url(#clip-path-2);}.cls-5{clip-path:url(#clip-path-3);}.cls-6{clip-path:url(#clip-path-4);}.cls-7{fill:url(#linear-gradient);}.cls-8{fill:url(#linear-gradient-2);}.cls-9{fill:url(#linear-gradient-3);}.cls-10{fill:url(#linear-gradient-4);}.cls-11{clip-path:url(#clip-path-5);}.cls-12{clip-path:url(#clip-path-6);}.cls-13{clip-path:url(#clip-path-7);}.cls-14{clip-path:url(#clip-path-8);}.cls-15{fill:url(#linear-gradient-5);}.cls-16{fill:url(#linear-gradient-6);}.cls-17{fill:url(#linear-gradient-7);}.cls-18{fill:url(#linear-gradient-8);}.cls-19{clip-path:url(#clip-path-9);}.cls-20{clip-path:url(#clip-path-10);}.cls-21{clip-path:url(#clip-path-11);}.cls-22{fill:url(#linear-gradient-9);}.cls-23{fill:url(#linear-gradient-10);}.cls-24{fill:url(#linear-gradient-11);}.cls-25{fill:url(#linear-gradient-12);}.cls-26{fill:#fefefe;}.cls-27{fill:#424245;}.cls-28{clip-path:url(#clip-path-12);}.cls-29{clip-path:url(#clip-path-13);}.cls-30{clip-path:url(#clip-path-14);}.cls-31{fill:url(#linear-gradient-13);}.cls-32{fill:url(#linear-gradient-14);}.cls-33,.cls-41{mix-blend-mode:multiply;}.cls-33{fill:url(#radial-gradient);}.cls-34{clip-path:url(#clip-path-15);}.cls-35{clip-path:url(#clip-path-16);}.cls-36{clip-path:url(#clip-path-17);}.cls-37{fill:url(#linear-gradient-15);}.cls-38{fill:url(#linear-gradient-16);}.cls-39{fill:url(#linear-gradient-17);}.cls-40{fill:url(#linear-gradient-18);}.cls-41{fill:url(#radial-gradient-2);}.cls-42{clip-path:url(#clip-path-18);}.cls-43{clip-path:url(#clip-path-19);}.cls-44{clip-path:url(#clip-path-20);}.cls-45{fill:url(#linear-gradient-19);}.cls-46{fill:url(#linear-gradient-20);}.cls-47{fill:url(#linear-gradient-21);}.cls-48{fill:url(#linear-gradient-22);}</style><clipPath id="clip-path"><rect class="cls-1" x="-251" y="765.83" width="587" height="816" rx="12"/></clipPath><clipPath id="clip-path-2"><rect class="cls-1" x="-1531.17" y="136.83" width="1919.15" height="2609" rx="12"/></clipPath><clipPath id="clip-path-3"><rect class="cls-1" x="-1527.5" y="96.83" width="1917" height="1553" rx="12"/></clipPath><clipPath id="clip-path-4"><rect class="cls-1" x="-1528" y="97.83" width="1917" height="1917"/></clipPath><linearGradient id="linear-gradient" x1="162.8" y1="207.13" x2="162.8" y2="7.91" gradientUnits="userSpaceOnUse"><stop offset="0" stop-color="#d1d3d4"/><stop offset="0.23" stop-color="#cdcfd0"/><stop offset="0.45" stop-color="#c2c4c5"/><stop offset="0.66" stop-color="#afb1b3"/><stop offset="0.87" stop-color="#949699"/><stop offset="1" stop-color="#808285"/></linearGradient><linearGradient id="linear-gradient-2" x1="-192.32" y1="240.3" x2="-192.32" y2="7.91" gradientUnits="userSpaceOnUse"><stop offset="0" stop-color="#fff"/><stop offset="1" stop-color="#a7a9ac"/></linearGradient><linearGradient id="linear-gradient-3" x1="-239.06" y1="7.91" x2="-239.06" y2="-151.82" gradientUnits="userSpaceOnUse"><stop offset="0" stop-color="#fff"/><stop offset="1" stop-color="#d1d3d4"/></linearGradient><linearGradient id="linear-gradient-4" x1="-392.32" y1="-141.3" x2="-137.87" y2="196.37" xlink:href="#linear-gradient"/><clipPath id="clip-path-5"><rect class="cls-1" x="-860.25" y="766.08" width="586" height="817" rx="12"/></clipPath><clipPath id="clip-path-6"><rect class="cls-1" x="-1530.42" y="137.08" width="1919.15" height="2609" rx="12"/></clipPath><clipPath id="clip-path-7"><rect class="cls-1" x="-1526.75" y="97.08" width="1917" height="1553" rx="12"/></clipPath><clipPath id="clip-path-8"><rect class="cls-1" x="-1527.25" y="98.08" width="1917" height="1917"/></clipPath><linearGradient id="linear-gradient-5" x1="163.55" y1="207.38" x2="163.55" y2="8.16" xlink:href="#linear-gradient"/><linearGradient id="linear-gradient-6" x1="-191.57" y1="240.55" x2="-191.57" y2="8.16" xlink:href="#linear-gradient-2"/><linearGradient id="linear-gradient-7" x1="-238.31" y1="8.16" x2="-238.31" y2="-151.57" xlink:href="#linear-gradient-3"/><linearGradient id="linear-gradient-8" x1="-391.57" y1="-141.05" x2="-137.12" y2="196.62" xlink:href="#linear-gradient"/><clipPath id="clip-path-9"><rect class="cls-1" x="-1475.58" y="765.83" width="587" height="816" rx="12"/></clipPath><clipPath id="clip-path-10"><rect class="cls-1" x="-1527.08" y="96.83" width="1917" height="1553" rx="12"/></clipPath><clipPath id="clip-path-11"><rect class="cls-1" x="-1527.58" y="97.83" width="1917" height="1917"/></clipPath><linearGradient id="linear-gradient-9" x1="163.22" y1="207.13" x2="163.22" y2="7.91" xlink:href="#linear-gradient"/><linearGradient id="linear-gradient-10" x1="-191.9" y1="240.3" x2="-191.9" y2="7.91" xlink:href="#linear-gradient-2"/><linearGradient id="linear-gradient-11" x1="-238.64" y1="7.91" x2="-238.64" y2="-151.82" xlink:href="#linear-gradient-3"/><linearGradient id="linear-gradient-12" x1="-391.91" y1="-141.3" x2="-137.45" y2="196.37" xlink:href="#linear-gradient"/><clipPath id="clip-path-12"><rect class="cls-1" x="-568" y="-712.5" width="1810" height="382" rx="12"/></clipPath><clipPath id="clip-path-13"><rect class="cls-1" x="-619.5" y="-965.5" width="1917" height="1553" rx="12"/></clipPath><clipPath id="clip-path-14"><rect class="cls-1" x="-620" y="-964.5" width="1917" height="1917"/></clipPath><linearGradient id="linear-gradient-13" x1="70.82" y1="339.8" x2="70.82" y2="-128.02" gradientUnits="userSpaceOnUse"><stop offset="0" stop-color="#fff"/><stop offset="0.41" stop-color="#fbfbfc"/><stop offset="0.79" stop-color="#f0f1f1"/><stop offset="1" stop-color="#e6e7e8"/></linearGradient><linearGradient id="linear-gradient-14" x1="5.78" y1="499.14" x2="5.78" y2="-12.53" xlink:href="#linear-gradient-13"/><radialGradient id="radial-gradient" cx="1127.21" cy="-767.82" r="2358.39" gradientUnits="userSpaceOnUse"><stop offset="0" stop-color="#fff"/><stop offset="0.32" stop-color="#fdfdfd"/><stop offset="0.47" stop-color="#f7f8f8"/><stop offset="0.58" stop-color="#f2f3f3"/><stop offset="0.7" stop-color="#e4e5e6"/><stop offset="0.84" stop-color="#cdced0"/><stop offset="0.98" stop-color="#acaeb1"/><stop offset="1" stop-color="#a7a9ac"/></radialGradient><clipPath id="clip-path-15"><rect class="cls-1" x="-1415" y="-888.5" width="587" height="816" rx="12"/></clipPath><clipPath id="clip-path-16"><rect class="cls-1" x="-1466.5" y="-1557.5" width="1917" height="1553" rx="12"/></clipPath><clipPath id="clip-path-17"><rect class="cls-1" x="-1467" y="-1556.5" width="1917" height="1917"/></clipPath><linearGradient id="linear-gradient-15" x1="-40.88" y1="29.24" x2="-40.88" y2="-416.09" gradientUnits="userSpaceOnUse"><stop offset="0" stop-color="#fff"/><stop offset="1" stop-color="#e6e7e8"/></linearGradient><linearGradient id="linear-gradient-16" x1="160.7" y1="-216.56" x2="108.38" y2="52.58" xlink:href="#linear-gradient-13"/><linearGradient id="linear-gradient-17" x1="-165.67" y1="387.38" x2="-165.67" y2="15.09" xlink:href="#linear-gradient-13"/><linearGradient id="linear-gradient-18" x1="-1.58" y1="238.07" x2="-1.58" y2="15.09" gradientUnits="userSpaceOnUse"><stop offset="0" stop-color="#fff"/><stop offset="0.29" stop-color="#fbfbfb"/><stop offset="0.59" stop-color="#eeeeef"/><stop offset="0.91" stop-color="#d8dadb"/><stop offset="1" stop-color="#d1d3d4"/></linearGradient><radialGradient id="radial-gradient-2" cx="280.21" cy="-1359.82" r="2358.39" xlink:href="#radial-gradient"/><clipPath id="clip-path-18"><rect class="cls-1" x="-1475" y="350" width="1810" height="382" rx="12"/></clipPath><clipPath id="clip-path-19"><rect class="cls-1" x="-1526.5" y="97" width="1917" height="1553" rx="12"/></clipPath><clipPath id="clip-path-20"><rect class="cls-1" x="-1527" y="98" width="1917" height="1917"/></clipPath><linearGradient id="linear-gradient-19" x1="163.8" y1="207.29" x2="163.8" y2="8.08" xlink:href="#linear-gradient"/><linearGradient id="linear-gradient-20" x1="-191.32" y1="240.47" x2="-191.32" y2="8.08" xlink:href="#linear-gradient-2"/><linearGradient id="linear-gradient-21" x1="-238.06" y1="8.08" x2="-238.06" y2="-151.65" xlink:href="#linear-gradient-3"/><linearGradient id="linear-gradient-22" x1="-391.32" y1="-141.14" x2="-136.87" y2="196.53" xlink:href="#linear-gradient"/></defs><title>thefloor-ux-crm-v5</title><g class="cls-2"><g id="Layer_1" data-name="Layer 1"><g class="cls-3"><g class="cls-4"><g class="cls-5"><g class="cls-6"><polygon class="cls-7" points="112.22 7.91 -51.62 207.13 377.22 190.42 112.22 7.91"/><polygon class="cls-8" points="112.22 7.91 -51.62 207.13 -496.86 240.3 112.22 7.91"/><polygon class="cls-9" points="-590.33 7.91 112.22 7.91 -534.42 -151.82 -590.33 7.91"/><polygon class="cls-10" points="-590.33 7.91 -496.86 240.3 112.22 7.91 -590.33 7.91"/></g></g></g></g><g class="cls-11"><g class="cls-12"><g class="cls-13"><g class="cls-14"><polygon class="cls-15" points="112.97 8.16 -50.87 207.38 377.97 190.67 112.97 8.16"/><polygon class="cls-16" points="112.97 8.16 -50.87 207.38 -496.11 240.55 112.97 8.16"/><polygon class="cls-17" points="-589.58 8.16 112.97 8.16 -533.67 -151.57 -589.58 8.16"/><polygon class="cls-18" points="-589.58 8.16 -496.11 240.55 112.97 8.16 -589.58 8.16"/></g></g></g></g><g class="cls-19"><g class="cls-20"><g class="cls-21"><polygon class="cls-22" points="112.64 7.91 -51.2 207.13 377.64 190.42 112.64 7.91"/><polygon class="cls-23" points="112.64 7.91 -51.2 207.13 -496.45 240.3 112.64 7.91"/><polygon class="cls-24" points="-589.92 7.91 112.64 7.91 -534 -151.82 -589.92 7.91"/><polygon class="cls-25" points="-589.92 7.91 -496.45 240.3 112.64 7.91 -589.92 7.91"/></g></g></g><circle class="cls-26" cx="36.5" cy="37.5" r="14.5"/><path class="cls-27" d="M37.92,35.86h5a1.61,1.61,0,0,1,1.17.43,1.42,1.42,0,0,1,.46,1.11,1.45,1.45,0,0,1-.46,1.11,1.62,1.62,0,0,1-1.17.44h-5v5.21a1.62,1.62,0,0,1-.44,1.17,1.51,1.51,0,0,1-1.14.46,1.49,1.49,0,0,1-1.11-.48,1.58,1.58,0,0,1-.46-1.15V39h-5a1.61,1.61,0,0,1-1.16-.44,1.53,1.53,0,0,1,0-2.2,1.62,1.62,0,0,1,1.15-.45h5V30.64a1.66,1.66,0,0,1,.44-1.18A1.46,1.46,0,0,1,36.34,29a1.52,1.52,0,0,1,1.14.47,1.65,1.65,0,0,1,.44,1.17Z"/><g class="cls-28"><g class="cls-29"><g class="cls-30"><polygon class="cls-31" points="-98.28 -12.53 109.85 339.8 239.92 -128.02 -98.28 -12.53"/><polygon class="cls-32" points="-98.28 -12.53 -50.97 499.14 109.85 339.8 -98.28 -12.53"/></g><rect class="cls-33" x="-620" y="-964.5" width="1917" height="1917"/></g></g><g class="cls-34"><g class="cls-35"><g class="cls-36"><polygon class="cls-37" points="-11.67 29.24 176.75 -213.44 -258.51 -416.09 -11.67 29.24"/><polygon class="cls-38" points="176.75 -213.44 234.49 44.77 -11.67 29.24 176.75 -213.44"/><polygon class="cls-39" points="-418.68 387.38 87.34 238.07 -237.66 15.09 -418.68 387.38"/><polygon class="cls-40" points="234.49 44.77 87.34 238.07 -237.66 15.09 234.49 44.77"/></g><rect class="cls-41" x="-1467" y="-1556.5" width="1917" height="1917"/></g></g></g><g id="Layer_2" data-name="Layer 2"><g class="cls-42"><g class="cls-43"><g class="cls-44"><polygon class="cls-45" points="113.22 8.08 -50.62 207.29 378.22 190.59 113.22 8.08"/><polygon class="cls-46" points="113.22 8.08 -50.62 207.29 -495.86 240.47 113.22 8.08"/><polygon class="cls-47" points="-589.33 8.08 113.22 8.08 -533.42 -151.65 -589.33 8.08"/><polygon class="cls-48" points="-589.33 8.08 -495.86 240.47 113.22 8.08 -589.33 8.08"/></g></g></g></g></g></svg>